<?xml version="1.0" standalone="no"?>
<!DOCTYPE svg PUBLIC "-//W3C//DTD SVG 1.1//EN" "http://www.w3.org/Graphics/SVG/1.1/DTD/svg11.dtd" >
<svg xmlns="http://www.w3.org/2000/svg" xmlns:xlink="http://www.w3.org/1999/xlink" version="1.1">
<metadata></metadata>
<defs>
<font id="avinyregular" horiz-adv-x="747" >
<font-face units-per-em="2048" ascent="1638" descent="-410" />
<missing-glyph horiz-adv-x="180" />
<glyph horiz-adv-x="0" />
<glyph unicode="&#xd;" horiz-adv-x="536" />
<glyph horiz-adv-x="0" />
<glyph horiz-adv-x="0" />
<glyph unicode=" "  horiz-adv-x="180" />
<glyph unicode="&#x09;" horiz-adv-x="180" />
<glyph unicode="&#xa0;" horiz-adv-x="180" />
<glyph unicode="!" horiz-adv-x="357" d="M73 125q4 34 31 65t79 33q44 -1 75 -24t42 -54q15 -56 -23 -101q-44 -50 -93.5 -46t-82.5 41t-28 86zM104 1006q3 102 48 136t90.5 13t50.5 -86q4 -141 -4.5 -313.5t-26.5 -309.5q-17 -105 -48.5 -157.5t-59.5 -26t-36 157.5z" />
<glyph unicode="&#x22;" horiz-adv-x="463" d="M35.5 1513.5q-3.5 97.5 9.5 169.5q11 49 45.5 63t67 -2.5t37.5 -57.5v-4v-2q1 -45 -13 -150.5t-55 -186.5q-30 -52 -55 0q-33 73 -36.5 170.5zM245.5 1513.5q-3.5 97.5 9.5 169.5q12 49 46 63t66.5 -2.5t37.5 -57.5v-4v-2q1 -45 -13 -150.5t-55 -186.5q-30 -52 -55 0 q-33 73 -36.5 170.5z" />
<glyph unicode="#" horiz-adv-x="1260" d="M119 410v137h265l69 354h-258v139h285l82 416h143l-82 -416h264l82 416h144l-82 -416h204v-139h-231l-69 -354h225v-137h-251l-80 -410h-144l80 410h-264l-80 -410h-143l80 410h-239zM527 547h264l69 354h-264z" />
<glyph unicode="$" horiz-adv-x="1150" d="M110 429h185q0 -139 73 -214t207 -75q131 0 206 63t75 172q0 92 -64.5 155t-217.5 114q-214 65 -311 169.5t-97 265.5q0 164 95.5 269t262.5 125v219h149v-220q167 -23 261 -141t94 -323h-184q0 141 -67 224t-181 83q-118 0 -181.5 -61.5t-63.5 -171.5 q0 -102 66.5 -162.5t219 -110t238 -109t126 -138.5t40.5 -185q0 -168 -101.5 -271.5t-284.5 -122.5v-191h-148v191q-186 17 -291.5 132.5t-105.5 313.5z" />
<glyph unicode="%" horiz-adv-x="818" d="M31 776q5 41 38 79t97 41q53 -2 91 -30t51 -65q19 -69 -28 -124q-54 -61 -114.5 -56t-101 50t-33.5 105zM175 135q13 49 55.5 158.5t90 223.5t73.5 176q5 13 10 23q9 22 19 45t28 64q45 96 84.5 120.5t55 -19.5t-10.5 -151q-25 -91 -48 -145q-7 -20 -16 -41 q-18 -47 -57 -166q-36 -102 -71 -200.5t-49 -134.5q-27 -66 -71 -77t-75.5 23t-17.5 101zM468 154q5 41 38 79.5t97 40.5q53 -3 91 -30.5t51 -64.5q19 -69 -27 -124q-53 -61 -114 -56t-101.5 50t-34.5 105z" />
<glyph unicode="&#x26;" horiz-adv-x="1273" d="M101 391q0 105 58.5 193t223.5 205q-97 118 -130 190t-33 143q0 166 98 260t266 94q150 0 248 -87.5t98 -220.5q0 -88 -44.5 -162.5t-155.5 -156.5l-107 -79l324 -387q68 130 68 289h167q0 -256 -123 -423l208 -249h-222l-97 115q-74 -66 -173.5 -100.5t-202.5 -34.5 q-213 0 -342 113t-129 298zM286 391q0 -118 76.5 -189t209.5 -71q147 0 269 112l-355 425l-33 -24q-167 -123 -167 -253zM405 1128q0 -96 118 -240l118 83q68 48 93 91.5t25 105.5q0 67 -50 111.5t-126 44.5q-82 0 -130 -55.5t-48 -140.5z" />
<glyph unicode="'" horiz-adv-x="203" d="M35.5 1673.5q-3.5 97.5 9.5 169.5q11 49 45.5 63t67 -2t37.5 -58v-5q1 -45 -13 -151t-55 -187q-30 -52 -55 0q-33 73 -36.5 170.5z" />
<glyph unicode="(" horiz-adv-x="420" d="M30 549q0 289 220 599q60 85 102 84q33 1 33 -42q0 -55 -38 -138q-32 -65 -63 -130q-85 -189 -85 -365q0 -127 47 -291q45 -139 90 -279q12 -37 11 -55q0 -27 -15 -55.5t-41 -28.5q-45 0 -118 158q-142 310 -143 543z" />
<glyph unicode=")" horiz-adv-x="420" d="M30 1190q0 43 33 42q42 0 102 -84q220 -310 220 -599q0 -232 -142 -543q-74 -158 -119 -158q-26 0 -41 29t-15 55q0 18 11 55q45 141 90 279q46 163 46 291q0 177 -84 365q-31 65 -63 130q-38 83 -38 138z" />
<glyph unicode="*" horiz-adv-x="882" d="M28 1073l46 151l302 -112l-9 344h153l-10 -349l297 110l46 -152l-307 -91l198 -271l-124 -94l-186 288l-180 -281l-125 91l201 276z" />
<glyph unicode="+" horiz-adv-x="926" d="M53 325q21 41 89 52q61 6 173 0q26 -2 51 -4q5 60 9 111q15 216 61 199q24 -10 46.5 -66.5t30.5 -136.5q4 -43 6 -68.5t2 -47.5v-2q10 -1 19 -1q83 -5 139 -9q216 -15 199 -62q-9 -24 -65.5 -46t-136.5 -30q-69 -6 -138 -7q-8 0 -16 -1q1 -89 -1 -159q-2 -71 -40 -96.5 t-79 -4.5t-52 89q-4 74 2 170h-18q-102 -1 -180 1q-71 2 -96.5 40t-4.5 79z" />
<glyph unicode="," horiz-adv-x="417" d="M68 163q20 52 64.5 77.5t88.5 21.5q54 -6 89.5 -48.5t36.5 -102.5q0 -15 -4 -34q-20 -82 -77 -176.5t-114 -125.5q-30 -13 -50 -10q-24 4 -28.5 21.5t4 37t23.5 33.5q62 58 90 144q-61 -9 -102 44t-21 118z" />
<glyph unicode="-" horiz-adv-x="799" d="M39 622q0 35 25 60t59 25h548q35 0 59 -25t24 -60q0 -34 -24 -58t-59 -24h-548q-34 0 -59 24.5t-25 57.5z" />
<glyph unicode="." horiz-adv-x="580" d="M160 -4q1 52 30 83q31 33 88 33q58 0 90 -33q30 -31 30 -83q0 -48 -30 -78q-33 -32 -90 -32t-88 32q-29 29 -30 78z" />
<glyph unicode="/" horiz-adv-x="596" d="M45 138q12 48 55 158t90.5 224t73.5 175l10 24q9 22 19.5 45t27.5 64q45 96 85 120t55 -19.5t-11 -152.5q-25 -90 -48 -145q-7 -19 -16 -40q-17 -48 -57 -165q-36 -103 -71 -201t-49 -135q-26 -66 -70.5 -77t-75.5 22.5t-18 102.5z" />
<glyph unicode="0" d="M32 417v166q0 119 44.5 213.5t120 149t167.5 54.5q136 0 239 -120q94 -119 94 -297v-166q0 -182 -94.5 -299.5t-238.5 -117.5q-97 0 -171.5 54.5t-117.5 148.5t-43 214zM198 417q0 -107 45 -178.5t121 -71.5q75 0 121.5 70.5t46.5 179.5v166q0 61 -19.5 118.5t-56.5 94.5 t-92 37q-54 0 -91 -37t-56 -94.5t-19 -118.5v-166z" />
<glyph unicode="1" horiz-adv-x="336" d="M32 917q0 34 24 58.5t59 24.5h84q35 0 58 -24.5t23 -58.5v-834q0 -34 -24 -58.5t-58 -24.5q-35 0 -59 24.5t-24 58.5v750q-35 0 -59 24.5t-24 59.5z" />
<glyph unicode="2" horiz-adv-x="668" d="M32 85q0 4 6 54.5t33 122t89 146.5t172 132q54 29 81 59.5t34 55t7 35.5v14q0 53 -37 90.5t-89 37.5q-53 0 -90.5 -37.5t-37.5 -90.5q0 -36 -24.5 -60t-58.5 -24q-36 0 -60.5 24.5t-24.5 59.5q0 122 87 209t209 87q121 0 206 -84t89 -209v-14q0 -21 -6.5 -57.5t-28 -79.5 t-65 -86t-115.5 -82q-88 -45 -132.5 -105.5t-59.5 -114.5h323q36 0 60 -24.5t24 -58.5q0 -36 -24 -60.5t-60 -24.5h-422q-36 0 -60.5 24.5t-24.5 60.5z" />
<glyph unicode="3" horiz-adv-x="755" d="M32 333q0 36 24 60t59 24q36 0 60 -24t24 -60q0 -69 49 -117.5t117 -48.5q69 0 118 48.5t49 117.5q0 68 -48.5 117.5t-117.5 49.5q-35 0 -59.5 24t-24.5 59q0 30 12 46.5t31.5 24.5t40.5 13t40 13t31 24t12 46q0 35 -25 59t-59 24h-166q-36 0 -60 24.5t-24 59.5 q0 34 24.5 58.5t59.5 24.5h166q103 0 176 -73.5t73 -176.5q1 -84 -49 -150q62 -47 98 -116t36 -151q0 -92 -45 -167.5t-121 -120.5t-168 -45t-167.5 45t-120.5 120.5t-45 167.5z" />
<glyph unicode="4" horiz-adv-x="749" d="M32 291q0 21 10 40l333 624q28 45 72 45h42q35 0 59.5 -24.5t24.5 -58.5v-541h41q34 0 58.5 -25t24.5 -60q0 -34 -24.5 -58.5t-58.5 -24.5h-41v-125q0 -34 -24.5 -58.5t-59.5 -24.5t-59 24.5t-24 58.5v125h-291q-43 0 -71 40q-12 21 -12 43zM253 376h153v286z" />
<glyph unicode="5" d="M32 333q0 36 24 60t59 24q36 0 60 -24t24 -60q0 -69 49 -117.5t117 -48.5q69 0 118 48.5t49 117.5q0 68 -45 114.5t-112 52.5l-156 -39q-11 -3 -21 -2q-40 0 -60.5 27.5t-20.5 64.5l41 375q4 32 27 53t55 21h251q34 0 58 -24.5t24 -58.5q0 -36 -24.5 -60t-57.5 -24h-176 l-20 -181l50 12q11 3 20 3q92 0 168 -45t121 -121t45 -168t-45 -167.5t-121 -120.5t-168 -45t-167.5 45t-120.5 120.5t-45 167.5z" />
<glyph unicode="6" horiz-adv-x="749" d="M32 333q0 79 33 145l254 477q29 45 75 45q37 0 59.5 -26t22.5 -57q0 -21 -9 -40l-113 -211q7 1 11 1q92 0 168 -45t121 -121t45 -168t-45 -167.5t-121 -120.5t-168 -45t-167.5 45t-120.5 120.5t-45 167.5zM199 333q0 -69 49 -117.5t117 -48.5q69 0 118 48.5t49 117.5 t-49 118t-118 49t-117.5 -49t-48.5 -118z" />
<glyph unicode="7" horiz-adv-x="657" d="M32 83q0 20 9 37l355 713h-281q-35 0 -59 24.5t-24 59.5q0 34 24 58.5t59 24.5h417q43 0 70 -40q13 -20 13 -45q0 -19 -9 -35l-417 -835q-11 -21 -31.5 -33t-42.5 -12q-20 0 -38 9q-22 12 -33.5 32t-11.5 42z" />
<glyph unicode="8" horiz-adv-x="752" d="M32 333q0 82 36 151t97 116q-50 66 -50 150q0 103 73.5 176.5t176.5 73.5t176 -73.5t73 -176.5q1 -84 -49 -150q62 -47 98 -116t36 -151q0 -92 -45 -167.5t-121 -120.5t-168 -45t-167.5 45t-120.5 120.5t-45 167.5zM199 333q0 -69 48.5 -117.5t117.5 -48.5t118 48.5 t49 117.5t-48.5 118t-118.5 49q-69 0 -117.5 -49t-48.5 -118zM282 750q0 -34 24 -58.5t59 -24.5q34 0 59 24.5t25 58.5q0 35 -25 59t-59 24q-35 0 -59 -24t-24 -59z" />
<glyph unicode="9" horiz-adv-x="752" d="M32 667q0 92 45 167.5t120.5 120.5t167.5 45t168 -45t121 -120.5t45 -167.5q0 -79 -33 -145l-256 -477q-28 -45 -73 -45q-37 0 -60 25.5t-23 57.5q0 21 10 40l113 211q-5 -1 -12 -1q-92 0 -167.5 45t-120.5 121t-45 168zM199 667q0 -69 48.5 -118t117.5 -49t118 48.5 t49 118.5q0 69 -48.5 117.5t-118.5 48.5q-69 0 -117.5 -49t-48.5 -117z" />
<glyph unicode=":" horiz-adv-x="310" d="M31 449q4 35 31 66t80 33q44 -2 74.5 -25t41.5 -54q15 -56 -22 -100q-45 -50 -94 -46t-82.5 41t-28.5 85zM37 137q4 34 30.5 65t79.5 33q45 -2 75.5 -24.5t41.5 -52.5q16 -57 -23 -102q-44 -50 -93.5 -46t-82.5 41t-28 86z" />
<glyph unicode=";" horiz-adv-x="432" d="M41 -218q94 131 98 270v167h181v-145q0 -101 -49.5 -202t-124.5 -162zM111 980q0 47 28.5 79.5t85.5 32.5t86.5 -32t29.5 -80q0 -46 -29.5 -77t-86.5 -31t-85.5 31t-28.5 77z" />
<glyph unicode="&#x3c;" d="M28 341q-1 37 18 61q9 15 23 27q44 41 102 91q26 23 48 43q24 22 42 36t55 40q47 33 86 42.5t52 -6.5q25 -32 -92 -153q-37 -37 -80 -86q-45 -50 -89 -95q44 -45 89 -94q44 -48 80 -86q117 -121 92 -153q-13 -16 -52 -6.5t-86 42.5q-37 26 -55 40t-42 36q-22 20 -48 43 q-58 49 -102 91q-14 12 -23 27q-19 23 -18 60z" />
<glyph unicode="=" horiz-adv-x="958" d="M42 472q-17 47 198 62q57 3 141 9q112 9 224.5 15.5t172.5 0.5q69 -11 90 -51.5t-4.5 -79t-96.5 -40.5q-78 -3 -181 -1q-45 1 -86 1q-49 -1 -118 0.5t-138 7.5q-79 8 -135.5 30t-66.5 46zM59 764q21 41 90 52q61 5 173.5 -1t224.5 -14q83 -7 140 -10q216 -15 198 -63 q-10 -24 -66.5 -45.5t-135.5 -29.5q-69 -5 -138 -7t-118 -1q-39 0 -86 -1q-103 -2 -181 2q-70 2 -96 39.5t-5 78.5z" />
<glyph unicode="&#x3e;" horiz-adv-x="523" d="M33 8q-25 32 91 153q37 37 81 86q45 50 89 94q-44 45 -89 95q-45 48 -81 86q-116 121 -91 153q13 16 52 6.5t86 -42.5q37 -27 54.5 -40.5t42.5 -35.5q22 -20 48 -43q58 -50 101 -91q14 -12 24 -27q18 -23 18 -61q0 -37 -18 -60q-10 -15 -24 -27q-43 -42 -101 -91 q-26 -23 -48 -43q-25 -22 -42.5 -36.5t-54.5 -39.5q-47 -33 -86 -42.5t-52 6.5z" />
<glyph unicode="?" horiz-adv-x="967" d="M75 1115q2 162 115.5 261.5t295.5 99.5q189 0 294.5 -101.5t105.5 -278.5q0 -175 -162 -345l-109 -108q-73 -81 -73 -233h-185q2 119 27 188t102 153l131 135q84 95 84 204q0 105 -55 164.5t-160 59.5q-102 0 -164 -54t-62 -145h-185zM349 93q0 45 27.5 75.5t82.5 30.5 q53 0 81 -30.5t28 -75.5t-28 -74.5t-81 -29.5q-54 0 -82 29.5t-28 74.5z" />
<glyph unicode="@" horiz-adv-x="1089" d="M32 500q0 137 67.5 251t181.5 181.5t251 67.5q138 0 251.5 -67.5t181 -181t67.5 -251.5q0 -83 -20.5 -143t-50.5 -102t-60.5 -67.5t-52 -37t-24.5 -11.5q-12 -6 -25 -6q-8 0 -17 2q-111 28 -143 97l-9 31q-53 -29 -115 -30q-102 0 -176.5 78.5t-74.5 188.5t74 189t177 79 q69 0 124 -37q20 37 59 37q28 0 46.5 -20.5t18.5 -47.5v-2v-2.5v-4.5v-7v-9v-12.5v-16v-19.5v-24.5v-29v-33.5v-40v-200q0 -9 -1 -14q8 -6 29 -14q19 11 44 38t44.5 73t19.5 117q0 101 -49.5 184.5t-133 133t-184.5 49.5t-184.5 -49.5t-133 -133t-49.5 -184.5 q0 -102 49.5 -185t133 -132.5t184.5 -49.5q58 0 112 18q11 3 19 3q43 0 64 -47q3 -9 3 -20q0 -20 -12 -38t-33 -25q-76 -24 -153 -24q-137 0 -251 67.5t-181.5 181t-67.5 251.5zM399 500q0 -55 34.5 -94t82.5 -39t82.5 38.5t34.5 94.5q0 54 -34 93.5t-83 39.5 q-48 0 -82.5 -39t-34.5 -94z" />
<glyph unicode="A" horiz-adv-x="910" d="M32 83q0 17 5 31l333 833q28 53 79 53q50 0 77 -53l333 -833q5 -16 6 -31q0 -32 -23 -57.5t-60 -25.5q-24 0 -45.5 14t-31.5 39l-63 155h-387l-63 -155q-11 -25 -31.5 -39t-45.5 -14q-37 0 -60 26t-23 57zM322 374h253l-126 319z" />
<glyph unicode="B" horiz-adv-x="741" d="M32 83v834q0 34 24 58.5t59 24.5h230q5 0 43.5 -5.5t86.5 -27.5q140 -73 139 -239q1 -89 -43 -156q128 -90 128 -259q0 -96 -45.5 -166.5t-112.5 -108.5t-135 -38h-291q-35 0 -59 24.5t-24 58.5zM199 167h197q1 0 12 1t28 5.5t34 13.5q28 16 41 38t17 45.5t4 42.5 q0 27 -12.5 61t-42 59.5t-81.5 25.5h-197v-292zM199 624h124q8 0 28.5 3t43 12.5t38.5 30.5t16 58q0 48 -17.5 70.5t-39.5 28.5t-36 6h-11h-146v-209z" />
<glyph unicode="C" horiz-adv-x="861" d="M32 500q0 137 67.5 251t181 181.5t251.5 67.5q126 0 238 -60q30 -18 40 -50q4 -12 4 -25q0 -19 -10 -38q-18 -31 -50 -41q-12 -4 -25 -3l-39 9q-75 40 -158 41q-91 0 -167 -44.5t-121 -120.5t-45 -168q0 -93 45 -168.5t121 -120t167 -44.5q83 0 158 40q20 9 40 9l24 -3 q32 -9 50 -40q10 -19 10 -39q0 -12 -4 -24q-10 -32 -40 -50q-112 -60 -238 -60q-138 0 -251.5 67.5t-181 181t-67.5 251.5z" />
<glyph unicode="D" horiz-adv-x="830" d="M32 83v834q0 34 24 58.5t59 24.5h243q1 0 32.5 -2.5t79.5 -15.5t102 -44t101.5 -85.5t78 -141t30.5 -211.5q0 -126 -30.5 -212t-78 -140.5t-101.5 -85.5t-102 -44t-79.5 -15.5t-32.5 -2.5h-243q-35 0 -59 24.5t-24 58.5zM199 167h159q2 0 21.5 2t49 11.5t62.5 29.5 q124 81 124 287q0 215 -130 295q-32 20 -61 28.5t-47 10.5t-19 2h-159v-666z" />
<glyph unicode="E" horiz-adv-x="707" d="M32 83v834q0 34 24.5 58.5t60.5 24.5h456q36 0 60.5 -24.5t24.5 -58.5q0 -36 -24.5 -60t-60.5 -24h-374v-250h292q35 0 58.5 -24.5t23.5 -58.5q0 -35 -24 -59t-58 -24h-292v-250h374q36 0 60.5 -24.5t24.5 -59.5q0 -34 -24.5 -58.5t-60.5 -24.5h-456q-36 0 -60.5 24.5 t-24.5 58.5z" />
<glyph unicode="F" horiz-adv-x="744" d="M32 83v834q0 34 24 58.5t59 24.5h499q35 0 60 -24.5t25 -58.5q0 -36 -25 -60t-60 -24h-415v-250h333q35 0 58.5 -24.5t23.5 -58.5q0 -35 -24 -59t-58 -24h-333v-334q0 -34 -25 -58.5t-59 -24.5q-35 0 -59 24.5t-24 58.5z" />
<glyph unicode="G" horiz-adv-x="967" d="M32 500q0 99 37.5 190.5t108.5 162.5q72 72 163.5 109.5t191.5 37.5q101 0 192.5 -37.5t163.5 -109.5q23 -25 23 -57t-24 -61q-27 -24 -59 -24t-59 24q-103 97 -237 98q-135 0 -236 -98q-98 -101 -98 -232q0 -137 98 -239q49 -50 110.5 -74t125.5 -24q114 0 213 75v176 h-209q-35 0 -60 24.5t-25 58.5t25 58.5t60 24.5h292q34 0 58.5 -24.5t24.5 -58.5v-294q0 -34 -24 -60q-74 -73 -166.5 -109.5t-188.5 -36.5t-188.5 36.5t-166.5 109.5q-146 152 -146 354z" />
<glyph unicode="H" horiz-adv-x="796" d="M32 83v834q0 34 24.5 58.5t58.5 24.5q35 0 59.5 -24.5t24.5 -58.5v-334h374v334q0 34 24.5 58.5t58.5 24.5q36 0 60.5 -24.5t24.5 -58.5v-834q0 -34 -24.5 -58.5t-60.5 -24.5q-34 0 -58.5 24.5t-24.5 58.5v334h-374v-334q0 -34 -24.5 -58.5t-59.5 -24.5q-34 0 -58.5 24.5 t-24.5 58.5z" />
<glyph unicode="I" horiz-adv-x="251" d="M32 83v834q0 34 24 58.5t59 24.5q34 0 58 -24.5t24 -58.5v-834q0 -34 -24 -58.5t-58 -24.5q-35 0 -59 24.5t-24 58.5z" />
<glyph unicode="J" horiz-adv-x="461" d="M32 83q0 36 24.5 60t58.5 24q43 0 67.5 16.5t37 39.5t16.5 43t4 25v626q0 34 24.5 58.5t58.5 24.5q36 0 60.5 -24.5t24.5 -58.5v-626q0 -5 -5.5 -46.5t-30.5 -94.5q-37 -73 -103 -111.5t-154 -38.5q-34 0 -58.5 24.5t-24.5 58.5z" />
<glyph unicode="K" d="M32 83v834q0 34 24 58.5t59 24.5q34 0 59 -24.5t25 -58.5v-333l354 389q27 27 61 27q35 0 59 -25t24 -58q0 -32 -21 -57l-330 -360l330 -360q21 -27 21 -57q0 -34 -24.5 -58.5t-58.5 -24.5q-35 0 -61 27l-354 389v-333q0 -34 -25 -58.5t-59 -24.5q-35 0 -59 24.5 t-24 58.5z" />
<glyph unicode="L" horiz-adv-x="614" d="M32 83v834q0 34 24.5 58.5t60.5 24.5q34 0 58 -24.5t24 -58.5v-750h292q35 0 59.5 -24.5t24.5 -59.5q0 -34 -24.5 -58.5t-59.5 -24.5h-374q-36 0 -60.5 24.5t-24.5 58.5z" />
<glyph unicode="M" horiz-adv-x="992" d="M32 83v834q0 33 24 58t61 25q38 0 65 -33l309 -411l308 411q28 33 66 33q37 0 60.5 -25t23.5 -58v-834q0 -34 -24 -58.5t-60 -24.5q-34 0 -58.5 24.5t-24.5 58.5v584l-225 -300q-28 -34 -66 -34t-68 34l-224 300v-584q0 -34 -24.5 -58.5t-59.5 -24.5t-59 24.5t-24 58.5z " />
<glyph unicode="N" horiz-adv-x="822" d="M32 83v834q0 32 23 57.5t62 25.5q38 0 66 -36l432 -617v570q0 34 24 58.5t60 24.5q35 0 59 -24.5t24 -58.5v-834q0 -33 -24 -58t-59 -25q-41 0 -69 36l-431 617v-570q0 -34 -25 -58.5t-59 -24.5q-35 0 -59 24.5t-24 58.5z" />
<glyph unicode="O" horiz-adv-x="1038" d="M32 500q0 137 64.5 251t173 181.5t240.5 67.5t241 -67.5t174 -181t65 -251.5t-65 -251.5t-174 -181t-241 -67.5t-240.5 67.5t-173 181t-64.5 251.5zM199 500q0 -93 42 -168.5t113 -120t156 -44.5q86 0 157 44.5t113.5 120.5t42.5 168t-42.5 168t-113.5 120.5t-157 44.5 q-85 0 -156 -44.5t-113 -120.5t-42 -168z" />
<glyph unicode="P" horiz-adv-x="715" d="M32 83v834q0 34 24.5 58.5t58.5 24.5h227q6 0 54 -6.5t109 -33.5q173 -92 173 -293q0 -6 -6 -54t-34 -109q-42 -83 -118.5 -127t-177.5 -44h-143v-250q0 -34 -24 -58.5t-60 -24.5q-34 0 -58.5 24.5t-24.5 58.5zM199 500h143q108 0 144 76q12 21 17 41.5t6.5 34.5t1.5 15 q0 108 -80 144q-22 11 -42 15.5t-33 5.5l-14 1h-143v-333z" />
<glyph unicode="Q" horiz-adv-x="1032" d="M32 500q0 137 64.5 251t173 181.5t240.5 67.5t241 -67.5t174 -181t65 -251.5q0 -88 -28 -167.5t-76 -143.5l43 -52q20 -25 19 -52q0 -37 -29 -65q-27 -20 -54 -20q-35 0 -64 30l-38 46q-114 -76 -253 -76q-132 0 -240.5 67.5t-173 181t-64.5 251.5zM199 500 q0 -93 42 -168.5t113 -120t156 -44.5q79 0 146 37l-63 76q-20 27 -20 54q0 37 30 63q25 20 53 20q37 0 64 -30l55 -66q48 80 48 179q0 92 -42.5 168t-113 120.5t-157.5 44.5q-85 0 -156 -44.5t-113 -120.5t-42 -168z" />
<glyph unicode="R" horiz-adv-x="724" d="M32 83v834q0 34 24.5 58.5t58.5 24.5h227q6 0 54 -6.5t109 -33.5q173 -92 173 -293q0 -6 -6 -54t-34 -109q-46 -88 -126 -131l153 -246q12 -20 13 -44q0 -41 -40 -71q-21 -12 -43 -12q-43 0 -71 38l-185 295h-140v-250q0 -34 -24.5 -58.5t-59.5 -24.5q-34 0 -58.5 24.5 t-24.5 58.5zM199 500h143q108 0 144 76q12 21 17 41.5t6.5 34.5t1.5 15q0 108 -80 144q-22 11 -42 15.5t-33 5.5l-14 1h-143v-333z" />
<glyph unicode="S" horiz-adv-x="703" d="M32 216q0 23 12.5 43.5t36.5 32.5q17 7 34 7q24 0 45 -12.5t32 -36.5q38 -77 130 -83h7q75 0 122 46q45 45 44 103v5q-4 34 -37 63t-75 49.5t-70 28.5l-7 3q-222 82 -221 275v11q5 113 98 185q84 64 195 64h13q93 -4 172 -63q32 -29 32 -66q0 -25 -17 -50 q-28 -33 -67 -33q-26 0 -50 16q-35 26 -76 29h-8q-53 0 -88.5 -24.5t-37.5 -63.5v-5q0 -36 15.5 -57.5t41 -35.5t53.5 -26q26 -5 95 -36.5t133 -94t72 -160.5v-14q0 -125 -90 -219q-102 -97 -243 -97h-12q-192 12 -277 180q-7 19 -7 36z" />
<glyph unicode="T" horiz-adv-x="746" d="M32 917q0 34 24 58.5t59 24.5h499q35 0 60 -24.5t25 -58.5q0 -36 -25 -60t-60 -24h-165v-750q0 -34 -25 -58.5t-59 -24.5q-35 0 -59 24.5t-24 58.5v750h-167q-35 0 -59 24.5t-24 59.5z" />
<glyph unicode="U" horiz-adv-x="783" d="M32 376v541q0 34 24 58.5t59 24.5q34 0 58.5 -24.5t24.5 -58.5v-541q0 -8 5.5 -41t24.5 -71.5t56.5 -67.5t101.5 -29q61 0 98.5 27.5t56.5 65t25.5 70.5t6.5 46v541q0 34 24.5 58.5t58.5 24.5t58.5 -24.5t24.5 -58.5v-541q0 -7 -6 -60.5t-34 -121.5q-45 -94 -125.5 -144 t-187.5 -50q-108 0 -188 50t-125 144q-28 68 -34.5 121.5t-6.5 60.5z" />
<glyph unicode="V" horiz-adv-x="918" d="M32 915q0 32 23 58.5t60 26.5q25 0 46 -14t31 -39l257 -640l256 640q10 25 31.5 39t45.5 14q37 0 60 -26t23 -57q0 -15 -6 -31l-333 -833q-27 -53 -77 -53q-51 0 -79 53l-333 833q-5 15 -5 29z" />
<glyph unicode="W" horiz-adv-x="1308" d="M32 915q0 32 23 58.5t62 26.5q49 0 75 -52l271 -648l96 232l-146 352q-7 16 -7 33q0 32 23.5 57.5t61.5 25.5q29 0 47.5 -14t27.5 -38l84 -199l83 199q27 52 76 52q37 0 60.5 -26.5t23.5 -58.5q0 -14 -6 -31l-147 -352l97 -232l270 648q27 52 75 52q18 0 33 -7 q25 -10 38.5 -31.5t13.5 -46.5q0 -14 -6 -31l-348 -832q-26 -52 -76 -52q-51 0 -77 52l-110 264l-111 -264q-27 -52 -76 -52q-52 0 -77 52l-349 832q-5 17 -5 31z" />
<glyph unicode="X" horiz-adv-x="828" d="M32 83q0 24 16 49l257 368l-257 368q-16 19 -16 45q0 32 22.5 59.5t60.5 27.5q41 0 68 -36l223 -318l224 318q28 36 69 36q35 0 59 -25.5t24 -57.5q0 -26 -15 -49l-258 -368l258 -368q15 -23 15 -49q0 -32 -25 -57.5t-58 -25.5q-41 0 -69 36l-224 318l-223 -318 q-28 -36 -68 -36q-35 0 -59 25.5t-24 57.5z" />
<glyph unicode="Y" horiz-adv-x="830" d="M32 913q0 32 22.5 59.5t60.5 27.5q41 0 68 -36l223 -318l224 318q28 36 69 36q24 0 47 -16q36 -28 36 -67q0 -26 -15 -49l-276 -393v-392q0 -34 -24.5 -58.5t-60.5 -24.5q-34 0 -58.5 24.5t-24.5 58.5v392l-275 393q-16 19 -16 45z" />
<glyph unicode="Z" horiz-adv-x="744" d="M32 85q0 21 12 41l423 707h-352q-35 0 -59 24.5t-24 57.5q0 36 24 60.5t59 24.5h499q32 0 57.5 -23.5t25.5 -59.5q0 -23 -10 -43l-425 -707h352q35 0 60 -24.5t25 -59.5q0 -34 -25 -58.5t-60 -24.5h-499q-33 0 -58 24.5t-25 60.5z" />
<glyph unicode="[" horiz-adv-x="587" d="M38 641q0 129 7 259q4 107 18 212q1 4 1 6q5 41 15 81q7 28 25 52q22 21 55 27.5t63 5.5q72 0 144 -8q64 -6 125 -25q12 -4 28 -11.5t25 -18.5q-6 -4 -17 -9t-22 -8t-16 -5q-61 -16 -123 -24q-60 -10 -120 -15l-19 -1l-2 -18q-55 -500 0 -999l2 -19l19 -2q61 -5 120 -14 q62 -9 123 -25q5 -1 16 -4.5t22 -7.5t17 -9q-9 -12 -25.5 -19t-27.5 -11q-61 -20 -125 -25q-59 -6 -118 -8q-36 -2 -77 4t-68 32q-22 28 -28 63q-10 47 -14 96l-2 14q-12 100 -15 200q-5 118 -6 234z" />
<glyph unicode="\" horiz-adv-x="550" d="M53.5 919.5q15.5 43.5 55.5 19.5t84 -120q19 -41 29 -64t19 -44q4 -11 10 -24q26 -62 73.5 -176t90.5 -223.5t55 -158.5q13 -68 -18 -101.5t-75.5 -22.5t-70.5 77q-15 37 -49 134.5t-70 201.5q-41 118 -58 164q-8 21 -16 41q-22 54 -48 145q-27 108 -11.5 151.5z" />
<glyph unicode="]" horiz-adv-x="587" d="M38 61q7 4 18.5 8.5t22 8t15.5 4.5q60 16 122 25q60 9 121 14l18 2l3 19q54 500 0 999l-3 18l-18 1q-61 5 -121 15q-62 8 -122 24q-5 2 -15.5 5t-22 7.5t-18.5 9.5q9 11 25.5 18.5t28.5 11.5q61 19 124 25q72 8 145 8q29 1 62 -5.5t55 -27.5q19 -23 25 -52q10 -40 15 -81 q1 -3 1 -6q14 -105 19 -212q6 -130 6 -259q0 -117 -5 -234q-4 -100 -15 -200q0 -7 -1 -14q-5 -49 -15 -96q-6 -36 -29 -63q-26 -26 -67.5 -32t-76.5 -4q-60 2 -119 8q-64 5 -124 25q-12 4 -28.5 11.5t-25.5 18.5z" />
<glyph unicode="^" horiz-adv-x="855" d="M64 729l299 727h127l298 -727h-171l-191 482l-190 -482h-172z" />
<glyph unicode="_" horiz-adv-x="802" d="M39 86q0 35 25 60t59 25h548q35 0 59 -25t24 -60q0 -34 -24 -58t-59 -24h-548q-34 0 -59 24.5t-25 57.5z" />
<glyph unicode="`" horiz-adv-x="633" d="M57 1534h223l194 -294h-159z" />
<glyph unicode="a" horiz-adv-x="697" d="M32 230q0 63 39 115q24 36 86.5 67.5t182.5 38.5h33q16 1 33 1q25 0 57 -3q-4 19 -11.5 35t-18.5 24q-35 17 -71 17h-4q-43 0 -82 -15.5t-64 -34.5q-26 -20 -55 -20q-38 0 -68 32q-20 26 -20 55q0 38 33 68q91 76 214 88q19 2 39 2q90 0 164 -39q59 -36 85.5 -89t33 -99 t6.5 -54v-236l1 -96q0 -35 -25.5 -61t-61.5 -26q-53 0 -78 48q-47 -25 -104 -36q-4 0 -11 -2q-13 -3 -34.5 -5.5t-49.5 -2.5q-96 0 -159 46t-84 132q-6 25 -6 50zM207 221q2 -9 7.5 -19.5t20.5 -17.5t46 -7q20 0 35.5 2.5t21.5 3.5q3 1 4.5 1h2.5q42 9 67.5 30t37.5 42l7 17 q-14 3 -51 3q-29 0 -77 -1q-52 -3 -81 -13.5t-37 -21.5l-2 -2q-1 -2 -1.5 -4t-0.5 -6v-2q1 -3 0 -5z" />
<glyph unicode="b" horiz-adv-x="700" d="M32 83v834q0 34 24 58.5t59 24.5q36 0 60 -24.5t24 -58.5v-288q67 38 146 38q85 0 156 -45t113 -121t42 -168t-42 -167.5t-113 -120.5t-156 -45t-156 45q-25 -45 -74 -45q-35 0 -59 24.5t-24 58.5zM199 333q0 -69 42.5 -117.5t103.5 -48.5q60 0 103 48.5t43 117.5 t-43.5 118t-102.5 49q-61 0 -103.5 -49t-42.5 -118z" />
<glyph unicode="c" horiz-adv-x="585" d="M32 349q0 97 44 176.5t119 127t166 47.5q69 0 134 -31q24 -11 37 -32.5t13 -46.5q0 -20 -9 -37q-28 -51 -78 -51q-18 0 -38 9q-28 13 -59 13q-63 0 -108.5 -51t-45.5 -124q0 -72 45 -123t109 -51q31 0 59 14q18 8 37 8q24 0 45.5 -13t33.5 -37q9 -17 9 -37 q0 -25 -13 -46.5t-37 -33.5q-65 -30 -134 -30q-91 0 -166 47t-119 126.5t-44 175.5z" />
<glyph unicode="d" horiz-adv-x="752" d="M32 333q0 92 45 168t120.5 121t167.5 45t167 -45v295q0 34 24.5 58.5t57.5 24.5q36 0 60.5 -24.5t24.5 -58.5v-834q0 -34 -24.5 -58.5t-60.5 -24.5q-49 0 -75 49q-77 -49 -174 -49q-92 0 -167.5 45t-120.5 120.5t-45 167.5zM199 333q0 -69 49 -117.5t117 -48.5 q69 0 118 48.5t49 117.5t-48.5 118t-118.5 49q-69 0 -117.5 -49t-48.5 -118z" />
<glyph unicode="e" horiz-adv-x="697" d="M32 351q0 96 41.5 175.5t111 126.5t153.5 47q126 0 219 -99q86 -101 87 -235q0 -37 -25.5 -63t-61.5 -26h-341q11 -37 39.5 -67.5t85.5 -34.5h9q17 0 45 4t57 23q23 13 48 13q21 0 41 -9.5t32 -28.5q15 -22 16 -47q0 -21 -11 -41t-30 -34q-54 -35 -105.5 -45t-83.5 -10 q-18 0 -27 2q-141 8 -225 110q-75 99 -75 239zM233 452h218q-38 74 -113 74q-63 0 -105 -74z" />
<glyph unicode="f" horiz-adv-x="550" d="M32 583q0 34 24 59t59 25h41v83q0 8 5 42.5t25 77.5q31 63 88 96.5t132 33.5q35 0 59.5 -24.5t24.5 -58.5q0 -36 -24.5 -60t-59.5 -24q-34 0 -48.5 -10.5t-20.5 -23.5q-9 -15 -11.5 -29.5t-2.5 -19.5v-83h83q35 0 59.5 -25t24.5 -59q0 -35 -24.5 -59t-59.5 -24h-83v-417 q0 -34 -24.5 -58.5t-58.5 -24.5q-35 0 -59.5 24.5t-24.5 58.5v417h-41q-35 0 -59 24.5t-24 58.5z" />
<glyph unicode="g" horiz-adv-x="697" d="M32 340q0 92 42.5 167t113.5 120.5t157 45.5q84 0 156 -44q25 44 71 44h2q34 0 58.5 -24.5t24.5 -58.5v-46.5v-40.5v-35v-29v-24.5v-20v-16v-13v-9.5v-7v-4.5v-2.5v-2v-334q0 -123 -77 -220q-45 -54 -107 -83.5t-129 -29.5h-20q-149 15 -238 145q-12 21 -12 45 q0 41 38 70q22 14 46 14q41 0 68 -39q42 -61 109 -68h9q61 0 107 51q40 53 41 115v39q-67 -38 -147 -39q-86 0 -157 45t-113.5 121t-42.5 168zM199 340q0 -69 42.5 -118t103.5 -49q60 0 103.5 49t43.5 118t-43.5 117.5t-103.5 48.5q-61 0 -103.5 -48.5t-42.5 -117.5z" />
<glyph unicode="h" horiz-adv-x="663" d="M32 83v834q0 34 24 58.5t59 24.5t59 -24.5t24 -58.5v-250h99q189 0 278 -147q28 -53 34 -96t6 -50v-291q0 -34 -24.5 -58.5t-59.5 -24.5t-59 24.5t-24 58.5v291q0 3 -3 24t-18 45q-32 57 -127 57h-3h-99v-417q0 -34 -24 -58.5t-59 -24.5t-59 24.5t-24 58.5z" />
<glyph unicode="i" horiz-adv-x="248" d="M32 83v548q0 34 24 59t59 25q34 0 59 -25t25 -59v-548q0 -35 -25 -59t-59 -24q-35 0 -59 24t-24 59zM32 924q0 35 24 59t59 24q34 0 59 -24t25 -59t-25 -59t-59 -24q-35 0 -59 24.5t-24 58.5z" />
<glyph unicode="j" horiz-adv-x="403" d="M32 -102q0 34 23.5 58t56.5 24q35 0 49.5 11t20.5 25q5 11 7.5 21t3.5 17l1 7v565q0 33 23.5 57.5t56.5 24.5q35 0 58.5 -24.5t23.5 -57.5v-565q0 -7 -4.5 -41t-23.5 -76q-68 -126 -216 -126q-33 0 -56.5 24t-23.5 56zM194 927q0 33 23.5 56.5t58.5 23.5q33 0 56.5 -23.5 t23.5 -56.5q0 -35 -23.5 -58.5t-56.5 -23.5q-35 0 -58.5 23.5t-23.5 58.5z" />
<glyph unicode="k" horiz-adv-x="631" d="M32 83v834q0 34 24 58.5t59 24.5q34 0 59 -24.5t25 -58.5v-507l233 233q26 23 59 23q32 0 58 -23q24 -27 24 -58q0 -35 -24 -61l-192 -191l192 -191q14 -13 19 -28t5 -31q0 -32 -24 -59q-26 -24 -58 -24q-33 0 -59 24l-233 233v-174q0 -34 -25 -58.5t-59 -24.5 q-35 0 -59 24.5t-24 58.5z" />
<glyph unicode="l" horiz-adv-x="233" d="M32 83v834q0 34 24 58.5t59 24.5t59.5 -24.5t24.5 -58.5v-834q0 -34 -24.5 -58.5t-59.5 -24.5t-59 24.5t-24 58.5z" />
<glyph unicode="m" horiz-adv-x="896" d="M32 87v525q0 36 25.5 62t60.5 26q34 0 57 -21q43 20 105 21q52 0 91 -16t67 -43q29 27 68.5 43t91.5 16q69 0 116 -27t76 -68t42.5 -88t13.5 -89v-341q0 -37 -26.5 -62t-61.5 -25q-37 0 -62.5 25.5t-25.5 61.5v341q0 7 -3 24.5t-12 36.5q-12 35 -55 35h-2q-45 0 -58 -35 q-8 -19 -11 -36.5t-3 -24.5v-341q0 -37 -26 -62t-62 -25t-61.5 25.5t-25.5 61.5v341q0 7 -3 24.5t-11 36.5q-10 19 -22.5 27t-34.5 8q-45 0 -59 -35q-8 -19 -11 -36.5t-3 -24.5v-341q0 -37 -25.5 -62t-63.5 -25q-36 0 -61 25.5t-25 61.5z" />
<glyph unicode="n" horiz-adv-x="656" d="M32 88v341q0 4 1 13v189q0 34 24.5 59t58.5 25t59 -25q7 -7 12 -14q54 24 125 24q167 0 246 -139q22 -48 27.5 -85.5t5.5 -46.5v-341q0 -37 -25.5 -62.5t-61.5 -25.5t-61.5 25.5t-25.5 62.5v341q0 2 -2.5 18.5t-13.5 36.5q-7 14 -26.5 27.5t-62.5 13.5q-44 0 -63 -13 t-27 -28q-9 -20 -12 -36.5t-3 -18.5v-341q0 -37 -26 -62.5t-62 -25.5h-3q-34 0 -58 24q-18 17 -23 40q-3 12 -3 24z" />
<glyph unicode="o" horiz-adv-x="765" d="M32 349q0 97 47 176.5t126.5 127t175.5 47.5q97 0 177 -47.5t127 -127t47 -176.5q0 -96 -47 -175.5t-127 -126.5t-177 -47q-96 0 -175.5 47t-126.5 126.5t-47 175.5zM207 349q0 -72 51 -123t123 -51q73 0 124.5 51t51.5 123q0 73 -51.5 124t-124.5 51q-72 0 -123 -51 t-51 -124z" />
<glyph unicode="p" horiz-adv-x="737" d="M32 -248v834q0 35 24.5 59t60.5 24q49 0 75 -48q77 48 174 48q92 0 167.5 -45t120.5 -121t45 -166q0 -93 -45 -168.5t-120.5 -121t-167.5 -45.5t-167 45v-295q0 -34 -24.5 -58.5t-57.5 -24.5q-36 0 -60.5 24.5t-24.5 58.5zM199 337q0 -70 49 -119t117 -49q69 0 118 49 t49 119q0 69 -48.5 117t-118.5 48q-69 0 -117.5 -48.5t-48.5 -116.5z" />
<glyph unicode="q" horiz-adv-x="737" d="M32 334q0 92 45 167.5t120.5 120.5t167.5 45q96 0 174 -48q27 48 75 48q36 0 60.5 -24t24.5 -59v-834q0 -34 -24.5 -58.5t-60.5 -24.5q-34 0 -58 24.5t-24 58.5v295q-75 -45 -167 -45t-167.5 45t-120.5 121t-45 168zM199 334q0 -69 49 -118t117 -49q69 0 118 49t49 118 t-48.5 117.5t-118.5 48.5q-69 0 -117.5 -49t-48.5 -117z" />
<glyph unicode="r" horiz-adv-x="422" d="M32 87v525q0 37 25.5 62.5t61.5 25.5q33 0 56 -21q50 21 119 21q37 0 62 -26t25 -62q0 -37 -25.5 -62.5t-61.5 -25.5q-21 0 -45 -5t-36 -21q-2 -4 -3.5 -8t-1.5 -6l-1 -3v-394q0 -37 -25.5 -62t-62.5 -25t-62 25.5t-25 61.5z" />
<glyph unicode="s" horiz-adv-x="566" d="M32 165q0 44 42 72q20 12 41 11q44 0 73 -43q13 -20 36 -29t43 -9q56 0 85 31q16 18 16 39q-8 13 -43.5 31t-74.5 28h-3t-3 1q-44 12 -86 36.5t-71 66t-29 105.5q0 84 68.5 139.5t171.5 55.5q69 0 136 -38q40 -29 40 -73q0 -23 -14 -44q-27 -38 -69 -38q-24 0 -46 12 q-10 6 -22.5 9.5t-24.5 3.5q-38 0 -55.5 -11.5t-17.5 -15.5q0 -5 3 -13t16 -16.5t45 -17.5q11 -2 39 -11t64 -25q81 -41 110.5 -87t31.5 -84v-16q0 -82 -59 -150q-81 -85 -208 -85q-71 0 -130.5 32.5t-92.5 89.5q-12 21 -12 43z" />
<glyph unicode="t" horiz-adv-x="561" d="M32 583q0 35 24 59.5t59 24.5h84v250q0 34 24.5 58.5t58.5 24.5t58.5 -24.5t24.5 -58.5v-250h84q35 0 59 -24.5t24 -59.5t-24 -59t-59 -24h-84v-417q0 -34 -24.5 -58.5t-58.5 -24.5q-35 0 -59 24.5t-24 58.5v417h-84q-35 0 -59 24.5t-24 58.5z" />
<glyph unicode="u" horiz-adv-x="633" d="M32 272v340q0 37 25.5 62.5t61.5 25.5t62 -26t26 -62v-340q0 -3 3 -19.5t13 -37.5q8 -15 26.5 -27.5t63.5 -12.5q43 0 62 12.5t26 27.5q11 20 13.5 37t2.5 20v340q0 37 25.5 62.5t61.5 25.5t61.5 -26t25.5 -62v-340q0 -9 -5 -47t-28 -85q-80 -140 -245 -140 q-169 0 -246 140q-24 47 -29.5 85t-5.5 47z" />
<glyph unicode="v" horiz-adv-x="734" d="M32 612q0 25 13 46t36 33q20 9 38 9q49 0 80 -51l171 -358l169 358q30 51 79 51q17 0 37 -9q24 -12 37 -33t13 -46q0 -20 -9 -38l-249 -524q-11 -23 -32 -36.5t-45 -13.5q-52 0 -81 50l-248 524q-9 17 -9 38z" />
<glyph unicode="w" horiz-adv-x="981" d="M32 612q0 28 15.5 50.5t43.5 31.5q14 4 29 4q28 0 50 -14.5t31 -42.5l103 -288l100 288q22 57 81 59h1h5q58 -4 80 -59l101 -288l103 288q10 28 31.5 42.5t49.5 14.5q15 0 29 -4q28 -9 43.5 -32.5t15.5 -49.5q0 -13 -5 -29l-184 -524q-27 -59 -83 -59t-82 59l-102 290 l-102 -290q-26 -59 -82 -59t-83 59l-184 524q-4 15 -5 29z" />
<glyph unicode="x" horiz-adv-x="628" d="M32 86q0 27 18 53l157 211l-157 212q-18 23 -18 50q0 41 34 70q26 18 52 18q40 0 70 -34l128 -172l124 166q29 34 69 34q27 0 53 -16q34 -28 34 -69q0 -27 -18 -53l-153 -206l153 -206q18 -27 18 -53q0 -40 -34 -69q-26 -18 -53 -18q-40 0 -69 36l-124 166l-128 -172 q-29 -34 -70 -34q-27 0 -52 18q-34 28 -34 68z" />
<glyph unicode="y" horiz-adv-x="709" d="M32 499q0 24 12 44.5t35 30.5q19 9 36 9q47 0 76 -49l163 -341l161 341q28 49 75 49q17 0 36 -9q22 -11 34.5 -31t12.5 -44q0 -20 -9 -36l-237 -500l-9 -16l-144 -316q-11 -23 -31 -35.5t-44 -12.5q-18 0 -36 7q-22 10 -34 31t-12 45q0 17 7 34l135 302l-218 461 q-9 16 -9 36z" />
<glyph unicode="z" horiz-adv-x="681" d="M34 88q0 29 19 56l318 380h-250q-37 0 -62 25.5t-25 62.5t25.5 62.5t61.5 25.5h438q52 0 79 -51q7 -18 8 -36q0 -31 -20 -56l-318 -382h251q36 0 61.5 -25.5t25.5 -62.5t-25.5 -62t-61.5 -25h-438q-50 0 -79 51q-8 18 -8 37z" />
<glyph unicode="{" horiz-adv-x="806" d="M13 627l3 6l-3 5q4 6 14 14.5t19 15.5t15 11q52 35 106 63q51 27 102 50l13 5v14q3 83 9 167q4 69 14 137v5q5 42 16 81q7 29 25 53q21 21 54.5 27t62.5 5q73 0 144 -8q64 -5 126 -24q11 -4 27.5 -12t24.5 -19q-6 -4 -17 -8.5t-22 -8t-16 -4.5q-61 -16 -122 -25t-121 -14 l-19 -2l-1 -19q-4 -33 -8 -65q-1 -3 -1 -7q-5 -34 -9 -67q-4 -31 -5 -64v-162v-1v-1q2 -28 -19 -47t-47 -27v-1q-29 -12 -60 -21q-41 -13 -83 -24l-86 -22l86 -22q42 -11 83 -24q30 -10 60 -22q26 -8 47 -26.5t19 -47.5v-1v-1v-142q1 -32 5 -63q4 -34 9 -68q0 -4 1 -6 q4 -33 8 -67l1 -17l19 -2q61 -5 121 -14q61 -9 122 -25q5 -1 16 -4.5t22 -8t17 -9.5q-8 -11 -24.5 -18.5t-27.5 -11.5q-61 -19 -126 -24q-59 -7 -117 -8q-35 -2 -77 4t-68 32q-22 28 -29 63q-10 47 -14 95l-2 14q-13 122 -17 245l-1 14l-12 7q-52 23 -103 49q-55 28 -106 64 q-5 3 -14.5 10t-19 15t-14.5 14z" />
<glyph unicode="|" horiz-adv-x="498" d="M175 -270v1726h149v-1726h-149z" />
<glyph unicode="}" horiz-adv-x="741" d="M-69 62q6 4 17.5 8.5t22 8t16.5 4.5q61 16 123 25q60 9 120 14l18 2l2 18q4 33 9 66v7q5 34 9 67q4 31 4 63v142v1v2q-2 28 19.5 47t46.5 27h1v1q29 12 60 20q41 13 83 25l86 21l-86 23q-42 11 -83 24q-30 10 -60 21h-1q-26 8 -46.5 26.5t-19.5 48.5v1v1v162q-1 32 -4 64 q-4 34 -9 67v7q-4 33 -9 66l-2 18l-18 1q-61 5 -120 15q-62 8 -123 24q-5 2 -16 5t-22 7.5t-18 9.5q9 11 25.5 18.5t27.5 11.5q61 19 126 25q71 8 144 8q29 1 62 -5.5t54 -27.5q19 -23 26 -52q10 -40 15 -81q0 -3 1 -6q9 -69 14 -137q6 -83 9 -167v-13l13 -6q52 -23 101 -50 q55 -28 107 -63q5 -3 15 -10t19.5 -15t12.5 -14l-2 -7l2 -5q-4 -6 -13 -14t-18.5 -15.5t-15.5 -10.5q-52 -35 -107 -63q-51 -27 -102 -50l-12 -6l-1 -14q-4 -123 -17 -245q-1 -7 -2 -15q-4 -48 -14 -95q-6 -36 -29 -63q-27 -26 -68.5 -32t-76.5 -4q-59 2 -117 8 q-64 5 -126 25q-11 4 -27.5 11t-25.5 19z" />
<glyph unicode="~" horiz-adv-x="611" d="M-379 1098q21 76 86 130q74 60 145 66.5t140.5 -21.5t138.5 -72q50 -30 113 -39t112 13.5t54 84.5q-2 56 -56.5 97.5t-113.5 39.5q122 22 181 -36.5t38 -157.5q-15 -61 -76.5 -104t-151 -46.5t-187.5 53.5q-106 63 -165.5 71t-91.5 -17t-54 -62q-11 -15 -22 -29 q-43 -50 -70.5 -33.5t-19.5 62.5z" />
<glyph unicode="&#xa1;" horiz-adv-x="498" d="M139 996q0 45 28 75t82 30q53 0 81 -30t28 -75t-27.5 -76t-81.5 -31t-82 31t-28 76zM157 -360l13 1044h168l13 -1044h-194z" />
<glyph unicode="&#xa2;" horiz-adv-x="1120" d="M105 527v35q0 212 101 354.5t278 175.5v226h185v-223q150 -23 246 -129t102 -256h-175q-8 105 -79.5 172.5t-176.5 67.5q-141 0 -218.5 -101.5t-77.5 -293.5v-35q0 -187 77.5 -288t218.5 -101q100 0 174 60.5t82 149.5h175q-6 -126 -105 -226.5t-243 -126.5v-233h-185 v234q-179 34 -279 176t-100 362z" />
<glyph unicode="&#xa3;" horiz-adv-x="1189" d="M91 622v157h160l-9 260q0 199 122.5 318t322.5 119q190 0 301 -106t111 -283h-191q0 107 -63.5 169t-174.5 62q-104 0 -169.5 -77t-65.5 -202l9 -260h319v-157h-314l8 -220q0 -153 -62 -245h733l-1 -157h-1032v157h77q40 9 65 74.5t27 161.5v8l-8 221h-165z" />
<glyph unicode="&#xa4;" horiz-adv-x="1460" d="M105 109l139 141q-104 156 -104 358q0 206 112 369l-147 151l130 136l147 -150q158 120 353 120q197 0 355 -121l149 152l132 -137l-151 -154q110 -163 110 -366q0 -196 -102 -355l143 -144l-132 -136l-136 139q-159 -132 -368 -132q-207 0 -366 130l-134 -136zM311 608 q0 -123 57.5 -229t155.5 -167t211 -61q112 0 210.5 61.5t155 167t56.5 228.5q0 122 -56.5 227.5t-155 166t-210.5 60.5t-210.5 -60t-156 -166t-57.5 -228z" />
<glyph unicode="&#xa5;" horiz-adv-x="1240" d="M31 1456h220l363 -674l364 674h219l-418 -720h312v-125h-384v-165h384v-124h-384v-322h-193v322h-378v124h378v165h-378v125h313z" />
<glyph unicode="&#xa6;" horiz-adv-x="490" d="M147 -270v791h186v-791h-186zM147 698v758h186v-758h-186z" />
<glyph unicode="&#xa7;" horiz-adv-x="1256" d="M90 -64l186 2q0 -130 90 -205.5t246 -75.5q136 0 219 58.5t83 154.5q0 89 -71 141.5t-280 114.5q-182 47 -278 103t-142.5 133.5t-46.5 188.5q0 186 182 274q-66 49 -101.5 117t-35.5 168q0 166 133.5 266t355.5 100q232 0 362 -113t130 -318h-185q0 125 -84 202.5 t-223 77.5q-142 0 -222.5 -57.5t-80.5 -155.5q0 -69 28 -109t95.5 -72.5t211 -72.5t228 -76t141 -84.5t85.5 -113t29 -153.5q0 -189 -186 -274q69 -49 105 -117t36 -168q0 -167 -130 -267t-358 -100q-111 0 -212 28t-171 85q-139 113 -139 318zM282 553q0 -70 27 -110 t93.5 -73t208.5 -74t186 -58q78 20 120 70.5t42 119.5q0 87 -69.5 142t-287.5 121q-90 24 -165 51q-80 -19 -117.5 -69.5t-37.5 -119.5z" />
<glyph unicode="&#xa8;" horiz-adv-x="855" d="M102 1193q0 45 27.5 75.5t81.5 30.5t82 -30.5t28 -75.5t-28 -75t-82 -30t-81.5 30t-27.5 75zM532 1191q0 45 27.5 76t81.5 31t82 -31t28 -76t-28 -75t-82 -30t-81.5 30t-27.5 75z" />
<glyph unicode="&#xa9;" horiz-adv-x="1609" d="M91 729q0 202 93.5 375t259 272.5t357.5 99.5q191 0 356.5 -99.5t259 -272.5t93.5 -375q0 -198 -90 -369.5t-255.5 -276t-363.5 -104.5t-363 103.5t-256 275.5t-91 371zM206 729q0 -172 80 -318.5t217.5 -229.5t297.5 -83q159 0 296.5 83t217.5 229.5t80 318.5 q0 170 -79 315t-216.5 228.5t-298.5 83.5q-160 0 -298 -82.5t-217.5 -228.5t-79.5 -316zM442 676v110q0 175 95.5 281t250.5 106q160 0 246 -82t86 -231h-146q0 99 -47.5 141.5t-138.5 42.5q-94 0 -148 -69t-54 -192v-113q0 -119 54 -188.5t148 -69.5q92 0 138.5 42 t46.5 143h146q0 -152 -86.5 -233t-244.5 -81q-157 0 -251.5 105.5t-94.5 287.5z" />
<glyph unicode="&#xaa;" horiz-adv-x="915" d="M147 918q0 111 83.5 171t255.5 60h108v52q0 134 -124 135q-69 0 -108.5 -27t-39.5 -78l-161 12q0 103 86 168t223 65q133 0 210 -71.5t77 -205.5v-316q0 -97 26 -178h-165q-12 34 -18 72q-77 -86 -204 -86q-119 0 -184 62t-65 165zM310 922q-1 -94 125 -94q43 0 87 20 t72 47v142h-112q-83 -2 -127.5 -33t-44.5 -82z" />
<glyph unicode="&#xab;" horiz-adv-x="807" d="M37 237q0 37 18 60q10 15 24 27q43 42 101 92q26 22 48 42q25 22 43 36t54 41q47 33 86 42t52 -7q25 -32 -91 -152q-37 -37 -81 -86q-45 -51 -89 -95q44 -45 89 -95q45 -48 81 -86q116 -120 91 -152q-13 -16 -52 -7t-86 42q-37 27 -54.5 41t-42.5 35q-22 20 -48 43 q-58 50 -101 92q-14 12 -24 26q-18 24 -18 61zM294 237q-1 37 18 60q9 15 23 27q43 42 100 92q27 22 49 42q24 22 42 36t55 41q48 33 86.5 42t51.5 -7q25 -32 -91 -152q-37 -37 -80 -86q-45 -51 -90 -95q45 -45 90 -95q44 -48 80 -86q117 -120 91 -152q-13 -16 -51.5 -7 t-86.5 42q-37 27 -55 41t-42 35q-22 20 -49 43q-57 50 -100 92q-14 12 -23 26q-19 24 -18 61z" />
<glyph unicode="&#xac;" horiz-adv-x="1134" d="M127 639v161h831v-425h-186v264h-645z" />
<glyph unicode="&#xad;" horiz-adv-x="565" d="M37 543v151h488v-151h-488z" />
<glyph unicode="&#xae;" horiz-adv-x="1609" d="M90 729q0 202 93.5 375t259 272.5t358.5 99.5q191 0 356 -99.5t258.5 -272.5t93.5 -375q0 -198 -90 -369.5t-255.5 -276t-363.5 -104.5q-197 0 -362.5 103.5t-256.5 275.5t-91 371zM205 729q0 -172 80 -318.5t217.5 -229.5t297.5 -83q161 0 299 84.5t216.5 229.5 t78.5 317q0 171 -78.5 315.5t-216.5 228t-299 83.5q-159 0 -297.5 -82.5t-218 -228.5t-79.5 -316zM512 316v849h276q153 0 237.5 -65.5t84.5 -190.5q0 -123 -128 -188q122 -50 123 -204v-61q0 -85 17 -124v-16h-145q-14 36 -14 128.5t-3 109.5q-16 96 -131 100h-176v-338 h-141zM653 782h156q71 2 115.5 35t44.5 87q0 73 -39 103.5t-139 30.5h-138v-256z" />
<glyph unicode="&#xaf;" horiz-adv-x="937" d="M120 1313v143h714v-143h-714z" />
<glyph unicode="&#xb0;" horiz-adv-x="764" d="M130 1216q0 103 74.5 181.5t180.5 78.5q104 0 177.5 -77.5t73.5 -182.5q0 -106 -73.5 -181t-177.5 -75q-105 0 -180 75t-75 181zM255 1216q0 -54 38 -91t92 -37t91 35.5t37 92.5q0 58 -37 95.5t-91 37.5t-92 -39.5t-38 -93.5z" />
<glyph unicode="&#xb1;" horiz-adv-x="1094" d="M97 703v151h385v413h167v-413h364v-151h-364v-414h-167v414h-385zM135 0v152h835v-152h-835z" />
<glyph unicode="&#xb2;" horiz-adv-x="750" d="M66 1205q0 114 83.5 188t215.5 74t209 -63.5t77 -173.5q0 -103 -107 -211l-84 -79l-176 -145h399v-128h-599v108l300 282q110 102 109 171q0 49 -32 79.5t-92 30.5q-75 0 -110.5 -38t-35.5 -95h-157z" />
<glyph unicode="&#xb3;" horiz-adv-x="750" d="M62 888h158q0 -45 39.5 -75t106.5 -30q70 0 106.5 30t36.5 81q0 113 -156 115h-88v116h84q74 0 110 30.5t36 78.5q0 45 -31.5 74t-101.5 29q-57 0 -94.5 -25.5t-37.5 -66.5h-157q0 98 81.5 159.5t205.5 61.5q137 0 215 -60.5t78 -164.5q0 -55 -35 -100.5t-101 -70.5 q149 -41 149 -184q0 -106 -85 -168.5t-221 -62.5q-132 0 -215 63t-83 170z" />
<glyph unicode="&#xb4;" horiz-adv-x="642" d="M123 1240l193 294h224l-268 -294h-149z" />
<glyph unicode="&#xb5;" horiz-adv-x="1160" d="M154 -416v1498h185v-633q1 -163 52.5 -241t167.5 -78q199 0 261 152v800h186v-1082h-167l-9 115q-93 -134 -263 -135q-147 0 -228 73v-469h-185z" />
<glyph unicode="&#xb6;" horiz-adv-x="1000" d="M67 988q0 213 133 340.5t363 127.5h269v-1456h-186v520h-84q-230 0 -362.5 127t-132.5 341z" />
<glyph unicode="&#xb7;" horiz-adv-x="534" d="M147 729q0 48 28.5 80t85.5 32t86.5 -32t29.5 -80q0 -47 -29.5 -78.5t-86.5 -31.5t-85.5 31.5t-28.5 78.5z" />
<glyph unicode="&#xb8;" horiz-adv-x="506" d="M116 -328q79 0 122.5 26t43.5 73q0 44 -32 65t-130 30l32 134h133l-12 -52q152 -28 153 -173q0 -97 -80 -153.5t-223 -56.5z" />
<glyph unicode="&#xb9;" horiz-adv-x="750" d="M122 1218v128l355 117h18v-789h-157v601z" />
<glyph unicode="&#xba;" horiz-adv-x="931" d="M122 1049v74q0 158 94 255.5t248 97.5q155 0 249 -96.5t94 -262.5v-74q0 -158 -93.5 -255.5t-247.5 -97.5t-249 97t-95 262zM285 1043q0 -100 48.5 -157t132.5 -57t131 57.5t47 158.5v78q0 99 -48.5 156t-131.5 57q-81 0 -129 -55t-50 -152v-86z" />
<glyph unicode="&#xbb;" horiz-adv-x="807" d="M42 -96q-25 32 92 152q37 37 80 86q45 51 89 95q-44 45 -89 95q-44 48 -80 86q-117 120 -92 152q13 16 52 7t86 -42q37 -27 55 -41t42 -36q22 -20 48 -42q58 -50 102 -92q14 -12 23 -27q19 -23 17 -60q1 -37 -17 -61q-9 -14 -23 -26q-44 -42 -102 -92q-26 -22 -48 -43 q-24 -21 -42 -35.5t-55 -40.5q-47 -33 -86 -42t-52 7zM297 -96q-25 32 92 152q37 37 80 86q45 51 90 95q-45 45 -90 95q-44 48 -80 86q-117 120 -92 152q13 16 52 7t87 -42q37 -27 54.5 -41t41.5 -36q22 -20 49 -42q58 -50 101 -92q14 -12 23 -27q19 -23 19 -60t-19 -61 q-9 -14 -23 -26q-43 -42 -101 -92q-27 -22 -49 -43q-24 -21 -41.5 -35.5t-54.5 -40.5q-48 -33 -86.5 -42t-52.5 7z" />
<glyph unicode="&#xbc;" horiz-adv-x="1500" d="M85 1208v128l355 117h18v-789h-157v601zM339 184l711 1138l104 -66l-711 -1138zM780 271l377 518h161v-490h107v-130h-107v-169h-157v169h-375zM938 299h223v289l-17 -28z" />
<glyph unicode="&#xbd;" horiz-adv-x="1589" d="M80 1208v128l355 117h18v-789h-157v601zM295 184l711 1138l104 -66l-711 -1138zM864 538q0 114 83.5 188t215.5 74t209 -63.5t77 -173.5q0 -104 -107 -211l-84 -79l-176 -145h399v-128h-599v108l300 282q110 102 109 171q0 49 -32 79.5t-92 30.5q-76 0 -111 -38t-35 -95 h-157z" />
<glyph unicode="&#xbe;" horiz-adv-x="1592" d="M111 889h158q0 -45 39.5 -75t106.5 -30q70 0 106.5 30t36.5 81q0 113 -156 115h-88v116h84q74 0 110 30.5t36 78.5q0 45 -31.5 74t-101.5 29q-57 0 -94.5 -25.5t-37.5 -66.5h-157q0 98 81.5 159.5t205.5 61.5q137 0 215 -60.5t78 -164.5q0 -55 -35 -100.5t-101 -70.5 q149 -41 149 -184q0 -106 -85 -168.5t-221 -62.5q-132 0 -215 63t-83 170zM466 184l711 1138l104 -66l-711 -1138zM872 271l377 518h161v-490h107v-130h-107v-169h-157v169h-375zM1030 299h223v289l-17 -28z" />
<glyph unicode="&#xbf;" horiz-adv-x="968" d="M68 -5q0 174 160 348l109 113q67 78 66 224h185q-1 -106 -21.5 -169.5t-68.5 -122.5t-140 -155.5t-103 -195.5l-2 -37q0 -109 58 -166.5t167 -57.5q100 0 162.5 56.5t62.5 147.5h185q-2 -161 -114.5 -263t-295.5 -102q-196 0 -303 100.5t-107 279.5zM377 997q0 44 28 74 t82 30t81.5 -30t27.5 -74q0 -45 -27.5 -76t-81.5 -31t-82 31t-28 76z" />
<glyph unicode="&#xc6;" horiz-adv-x="1914" d="M-14 0l880 1456h951v-152h-691l20 -471h590v-151h-584l22 -531h705v-151h-883l-15 353h-564l-205 -353h-226zM518 527h456l-31 733z" />
<glyph unicode="&#xd7;" horiz-adv-x="688" d="M37 54q-14 44 26 100q39 47 123 122q20 17 39 34q-39 46 -73 84q-142 164 -96 185q23 10 79 -14.5t117 -75.5q33 -27 52.5 -44t34.5 -32l2 -2l14 13q64 55 106 92q163 142 185 97q11 -24 -14 -79.5t-75 -117.5q-45 -52 -93 -102l-12 -12q64 -62 113 -114q49 -51 40.5 -96 t-53 -59t-100.5 26q-55 49 -119 122l-12 -13q-71 -73 -129 -126q-53 -49 -97 -40.5t-58 52.5z" />
<glyph unicode="&#xd8;" horiz-adv-x="1407" d="M118 690v83q0 210 73 371t206.5 246.5t305.5 85.5q214 0 362 -125l103 165h141l-159 -255q136 -187 139 -481v-99q0 -215 -72 -374t-204 -243t-308 -84q-171 0 -302 82l-97 -155h-142l144 231q-190 192 -190 552zM309 681q0 -244 98 -385l564 904q-102 110 -268 111 q-183 0 -287 -138.5t-107 -384.5v-107zM493 207q91 -63 212 -64q186 0 288 135.5t105 388.5v108q0 183 -56 313z" />
<glyph unicode="&#xde;" horiz-adv-x="1210" d="M166 0v1456h186v-293h279q147 0 257 -52.5t169.5 -149.5t59.5 -223q0 -194 -132 -309.5t-359 -115.5h-274v-313h-186zM352 465h277q142 0 222 75.5t80 195.5q0 123 -80 198.5t-216 76.5h-283v-546z" />
<glyph unicode="&#xdf;" horiz-adv-x="1218" d="M139 0v1111q0 207 103.5 325t289.5 118q181 0 279 -89.5t98 -248.5q0 -126 -64 -227t-64 -170q0 -51 37.5 -98.5t131.5 -119.5t137 -140t43 -144q0 -159 -101.5 -248t-283.5 -89q-81 0 -171.5 22t-128.5 50l43 155q49 -31 116.5 -53.5t120.5 -22.5q107 0 163.5 47 t56.5 129q0 52 -37 100t-131.5 121.5t-138 142.5t-43.5 150q0 89 69.5 192.5t69.5 187.5q0 93 -52 147t-140 54q-218 0 -218 -293v-1109h-185z" />
<glyph unicode="&#xe6;" horiz-adv-x="1729" d="M78 304q0 158 113.5 244.5t334.5 86.5h223v85q0 107 -55 168.5t-159 61.5q-105 0 -175 -55t-70 -136l-184 19q0 142 121 233t308 91q115 0 203 -41.5t138 -124.5q63 79 150 122.5t192 43.5q210 0 326 -128.5t116 -361.5v-115h-728q7 -176 94 -271.5t236 -95.5 q148 0 269 76l47 31l64 -136q-157 -121 -380 -121q-261 0 -397 180q-65 -86 -178 -133t-254 -47q-167 0 -261 86.5t-94 237.5zM264 300q0 -77 53 -123.5t152 -46.5q72 0 151 37t129 91v237h-228q-117 -2 -187 -57t-70 -138zM937 640h538v31q0 132 -67 205.5t-190 73.5 q-115 0 -189.5 -85.5t-91.5 -224.5z" />
<glyph unicode="&#xf0;" horiz-adv-x="1200" d="M126 467q0 148 56 264t159.5 181t232.5 65q163 0 284 -114q-48 195 -189 336l-218 -148l-73 99l192 131q-132 91 -315 140l57 159q240 -53 414 -193l189 129l73 -100l-168 -115q249 -264 249 -673v-93q0 -158 -58.5 -284.5t-166.5 -198.5t-242 -72q-135 0 -245 64.5 t-170.5 176.5t-60.5 246zM311 467q0 -140 83.5 -238t211.5 -98q125 0 201.5 113t76.5 297v94l-2 56q-34 61 -103 97.5t-161 36.5q-145 0 -226 -95.5t-81 -262.5z" />
<glyph unicode="&#xf7;" horiz-adv-x="923" d="M48.5 804q20.5 41 89.5 52q61 6 173.5 -0.5t223.5 -14.5q84 -6 141 -10q215 -15 198 -62q-10 -25 -66 -46.5t-136 -29.5q-69 -5 -138 -6.5t-118 -1.5h-86q-102 -2 -180 1q-71 2 -96.5 39.5t-5 78.5zM327 463q5 42 37.5 80t96.5 40q53 -2 91.5 -29.5t51.5 -65.5 q19 -69 -28 -124q-53 -61 -113.5 -56t-101 50t-34.5 105zM327 1114q5 42 37.5 80t96.5 40q53 -2 91.5 -30t51.5 -65q19 -69 -28 -124q-53 -61 -113.5 -56t-101 50t-34.5 105z" />
<glyph unicode="&#x2c6;" horiz-adv-x="964" d="M169 1252v12l246 272h112l247 -274v-10h-153l-150 170l-149 -170h-153z" />
<glyph unicode="&#x2dc;" horiz-adv-x="966" d="M123 1248q0 107 60.5 177t153.5 70q36 0 63.5 -10t75.5 -39t73.5 -38t56.5 -9q43 0 71.5 34t28.5 79l124 -12q0 -109 -61.5 -175.5t-153.5 -66.5q-41 0 -71 10t-78.5 41t-70 37.5t-49.5 6.5q-41 0 -70 -31.5t-29 -80.5z" />
<glyph unicode="&#x2000;" horiz-adv-x="1003" />
<glyph unicode="&#x2001;" horiz-adv-x="2007" />
<glyph unicode="&#x2002;" horiz-adv-x="1003" />
<glyph unicode="&#x2003;" horiz-adv-x="2007" />
<glyph unicode="&#x2004;" horiz-adv-x="669" />
<glyph unicode="&#x2005;" horiz-adv-x="501" />
<glyph unicode="&#x2006;" horiz-adv-x="334" />
<glyph unicode="&#x2007;" horiz-adv-x="334" />
<glyph unicode="&#x2008;" horiz-adv-x="250" />
<glyph unicode="&#x2009;" horiz-adv-x="401" />
<glyph unicode="&#x200a;" horiz-adv-x="111" />
<glyph unicode="&#x2010;" horiz-adv-x="799" d="M39 622q0 35 25 60t59 25h548q35 0 59 -25t24 -60q0 -34 -24 -58t-59 -24h-548q-34 0 -59 24.5t-25 57.5z" />
<glyph unicode="&#x2011;" horiz-adv-x="799" d="M39 622q0 35 25 60t59 25h548q35 0 59 -25t24 -60q0 -34 -24 -58t-59 -24h-548q-34 0 -59 24.5t-25 57.5z" />
<glyph unicode="&#x2012;" horiz-adv-x="799" d="M39 622q0 35 25 60t59 25h548q35 0 59 -25t24 -60q0 -34 -24 -58t-59 -24h-548q-34 0 -59 24.5t-25 57.5z" />
<glyph unicode="&#x2013;" horiz-adv-x="1343" d="M163 651v151h1002v-151h-1002z" />
<glyph unicode="&#x2014;" horiz-adv-x="1599" d="M145 651v151h1336v-151h-1336z" />
<glyph unicode="&#x2018;" horiz-adv-x="495" d="M56.5 1472.5q-15.5 52.5 7.5 108.5q6 13 18 30q51 67 140.5 130.5t154.5 69.5q34 1 51 -11q20 -14 17 -31.5t-19 -32.5t-34 -20q-80 -28 -141 -96q60 -17 76.5 -81.5t-27.5 -117.5q-39 -39 -90.5 -45t-90.5 16q-47 28 -62.5 80.5z" />
<glyph unicode="&#x2019;" horiz-adv-x="495" d="M50 1768.5q-3 17.5 18 31.5q17 12 50 11q65 -6 154.5 -69.5t140.5 -130.5q12 -17 18 -30q24 -55 8 -108.5t-63 -80.5q-39 -21 -90 -15.5t-91 44.5q-43 53 -27 117.5t76 81.5q-60 68 -141 96q-18 5 -34 20t-19 32.5z" />
<glyph unicode="&#x201a;" horiz-adv-x="406" d="M36 -210q92 127 94 273v118h185v-100q0 -101 -49 -202t-125 -162z" />
<glyph unicode="&#x201c;" horiz-adv-x="680" d="M38 1738.5q-10 45.5 13 90.5q6 12 17 25q46 53 125.5 102t135.5 51q28 -2 42 -12q16 -12 12.5 -27t-17.5 -27t-30 -16q-69 -20 -125 -74q50 -17 59.5 -72.5t-29.5 -97.5q-36 -31 -79.5 -33t-75.5 19q-38 26 -48 71.5zM294.5 1738.5q-10.5 45.5 11.5 90.5q6 12 18 25 q46 53 125.5 102t134.5 51q28 -2 43 -12q16 -12 12.5 -27t-18 -27t-30.5 -16q-69 -20 -124 -74q49 -17 59.5 -72.5t-29.5 -97.5q-36 -31 -79 -33t-75 19q-38 26 -48.5 71.5z" />
<glyph unicode="&#x201d;" horiz-adv-x="680" d="M35.5 1688q3.5 15 18 26.5t30.5 15.5q69 19 123 73q-50 18 -59.5 73.5t30.5 97.5q36 31 79 33t75 -19q38 -26 48.5 -71.5t-11.5 -90.5q-6 -12 -18 -25q-46 -53 -125.5 -102t-134.5 -51q-28 2 -43 13q-16 12 -12.5 27zM291.5 1688q3.5 15 17.5 26.5t30 15.5q69 19 125 73 q-50 18 -59.5 73.5t29.5 97.5q36 31 79.5 33t75.5 -19q38 -26 48 -71.5t-13 -90.5q-6 -12 -17 -25q-46 -53 -125.5 -102t-135.5 -51q-28 2 -42 13q-16 12 -12.5 27z" />
<glyph unicode="&#x201e;" horiz-adv-x="705" d="M36 -229q92 137 94 290v185h185v-164q0 -108 -49 -213.5t-125 -169.5zM332 -229q91 137 94 290v185h186v-164q0 -107 -49 -211.5t-126 -171.5z" />
<glyph unicode="&#x2022;" horiz-adv-x="690" d="M138 734v38q0 87 55.5 143t147.5 56q91 0 148 -54.5t57 -147.5v-37q0 -87 -55 -142t-149 -55q-93 0 -148.5 55.5t-55.5 143.5z" />
<glyph unicode="&#x2026;" horiz-adv-x="1370" d="M148 97q0 48 28.5 80t85.5 32t86.5 -32t29.5 -80q0 -46 -29.5 -77t-86.5 -31t-85.5 31t-28.5 77zM585 97q0 48 28.5 80t85.5 32t86.5 -32t29.5 -80q0 -46 -29.5 -77t-86.5 -31t-85.5 31t-28.5 77zM1000 97q0 48 28.5 80t85.5 32t86.5 -32t29.5 -80q0 -46 -29.5 -77 t-86.5 -31t-85.5 31t-28.5 77z" />
<glyph unicode="&#x202f;" horiz-adv-x="401" />
<glyph unicode="&#x2039;" d="M28 341q-1 37 18 61q9 15 23 27q44 41 102 91q26 23 48 43q24 22 42 36t55 40q47 33 86 42.5t52 -6.5q25 -32 -92 -153q-37 -37 -80 -86q-45 -50 -89 -95q44 -45 89 -94q44 -48 80 -86q117 -121 92 -153q-13 -16 -52 -6.5t-86 42.5q-37 26 -55 40t-42 36q-22 20 -48 43 q-58 49 -102 91q-14 12 -23 27q-19 23 -18 60z" />
<glyph unicode="&#x203a;" horiz-adv-x="523" d="M33 8q-25 32 91 153q37 37 81 86q45 50 89 94q-44 45 -89 95q-45 48 -81 86q-116 121 -91 153q13 16 52 6.5t86 -42.5q37 -27 54.5 -40.5t42.5 -35.5q22 -20 48 -43q58 -50 101 -91q14 -12 24 -27q18 -23 18 -61q0 -37 -18 -60q-10 -15 -24 -27q-43 -42 -101 -91 q-26 -23 -48 -43q-25 -22 -42.5 -36.5t-54.5 -39.5q-47 -33 -86 -42.5t-52 6.5z" />
<glyph unicode="&#x205f;" horiz-adv-x="501" />
<glyph unicode="&#x25fc;" horiz-adv-x="698" d="M0 0v699h699v-699h-699z" />
</font>
</defs>
</svg>
