<svg xmlns="http://www.w3.org/2000/svg" xmlns:xlink="http://www.w3.org/1999/xlink" viewBox="-1105 -8058 139 139">
  <defs>
    <style>
      .cls-1 {
        fill: none;
      }

      .cls-2 {
        clip-path: url(#clip-path);
      }

      .cls-3 {
        fill: #dcf8ff;
      }

      .cls-4 {
        clip-path: url(#clip-path-2);
      }

      .cls-5 {
        fill: #a9d7e3;
      }

      .cls-6 {
        clip-path: url(#clip-path-3);
      }

      .cls-7 {
        fill: #7bcde2;
      }

      .cls-8 {
        fill: #a5e2f2;
      }

      .cls-9 {
        fill: #77b3d4;
      }

      .cls-10 {
        opacity: 0.2;
      }

      .cls-11 {
        fill: #231f20;
      }

      .cls-12 {
        fill: #4f5d73;
      }

      .cls-13 {
        fill: #fff;
      }
    </style>
    <clipPath id="clip-path">
      <circle id="Ellipse_37" data-name="Ellipse 37" class="cls-1" cx="69.5" cy="69.5" r="69.5" transform="translate(731 124)"/>
    </clipPath>
    <clipPath id="clip-path-2">
      <circle id="Ellipse_36" data-name="Ellipse 36" cx="69.5" cy="69.5" r="69.5"/>
    </clipPath>
    <clipPath id="clip-path-3">
      <path id="Path_959" data-name="Path 959" d="M50.31,132.451c0,5.56,6.533,7.228,9.869,8.062,10.564,2.78,31.692,8.2,31.692,8.2a16.885,16.885,0,0,1,9.869,9.174V171.51h-139V157.888a16.5,16.5,0,0,1,9.869-9.174s21.128-5.421,31.692-8.2c3.336-.834,9.869-2.5,9.869-8.062V117.3H50.31Z" transform="translate(37.26 -117.3)"/>
    </clipPath>
  </defs>
  <g id="Group_1017" data-name="Group 1017" transform="translate(-1836 -8182)">
    <g id="Mask_Group_5" data-name="Mask Group 5" class="cls-2">
      <g id="_1489062450_unknown" data-name="1489062450_unknown" transform="translate(731 124)">
        <g id="Group_292" data-name="Group 292" transform="translate(0 0)">
          <circle id="Ellipse_35" data-name="Ellipse 35" class="cls-3" cx="69.5" cy="69.5" r="69.5"/>
          <g id="Group_291" data-name="Group 291" class="cls-4">
            <path id="Path_958" data-name="Path 958" class="cls-5" d="M50.31,132.451c0,5.56,6.533,7.228,9.869,8.062,10.564,2.78,31.692,8.2,31.692,8.2a16.885,16.885,0,0,1,9.869,9.174V171.51h-139V157.888a16.5,16.5,0,0,1,9.869-9.174s21.128-5.421,31.692-8.2c3.336-.834,9.869-2.5,9.869-8.062V117.3H50.31Z" transform="translate(37.26 -32.51)"/>
            <g id="Group_290" data-name="Group 290" class="cls-6" transform="translate(0 84.79)">
              <path id="head-shadow" class="cls-7" d="M32.224,48.3H32.5c4.587,0,11.4.278,15.846,2.78A24.007,24.007,0,0,1,60.163,67.9c3.336,19.043-2.919,49.206-8.757,58.936-5.56,9.313-13.622,12.788-18.765,13.066h-.834c-5.143-.278-13.2-3.753-18.765-13.066C7.2,117.1.949,86.942,4.285,67.9A24.007,24.007,0,0,1,16.1,51.08c4.448-2.5,11.259-2.78,15.846-2.78h.278Z" transform="translate(37.554 -117.8)"/>
            </g>
          </g>
        </g>
        <path id="head" class="cls-8" d="M31.394,55.2c26.549,0,28.773,19.182,28.912,20.989,1.529,16.541-4.17,39.059-9.452,46.843-5.56,8.2-13.622,11.259-18.765,11.537h-.7a26.132,26.132,0,0,1-18.9-11.676c-5.282-7.784-10.981-30.3-9.452-46.982C3.177,74.243,4.845,55.2,31.394,55.2Z" transform="translate(37.55 -32.96)"/>
      </g>
    </g>
    <g id="_1489065056_unlocked" data-name="1489065056_unlocked" transform="translate(820 220.9)">
      <g id="Group_295" data-name="Group 295">
        <circle id="Ellipse_40" data-name="Ellipse 40" class="cls-9" cx="21.05" cy="21.05" r="21.05"/>
      </g>
      <g id="Group_297" data-name="Group 297" class="cls-10" transform="translate(12.17 8.113)">
        <g id="Group_296" data-name="Group 296">
          <path id="Path_964" data-name="Path 964" class="cls-11" d="M20.145,27.682A1.644,1.644,0,0,1,18.5,26.038V21.213a8.881,8.881,0,0,1,16.339-4.82,1.644,1.644,0,1,1-2.761,1.787,5.592,5.592,0,0,0-10.29,3.033v4.824A1.644,1.644,0,0,1,20.145,27.682Z" transform="translate(-18.5 -12.333)"/>
        </g>
      </g>
      <g id="Group_299" data-name="Group 299" transform="translate(12.17 6.797)">
        <g id="Group_298" data-name="Group 298">
          <path id="Path_965" data-name="Path 965" class="cls-12" d="M20.145,25.682A1.644,1.644,0,0,1,18.5,24.038V19.213a8.881,8.881,0,0,1,16.339-4.82,1.644,1.644,0,1,1-2.761,1.787,5.592,5.592,0,0,0-10.29,3.033v4.824A1.644,1.644,0,0,1,20.145,25.682Z" transform="translate(-18.5 -10.333)"/>
        </g>
      </g>
      <g id="Group_301" data-name="Group 301" transform="translate(18.419 21.05)">
        <g id="Group_300" data-name="Group 300">
          <path id="Path_966" data-name="Path 966" class="cls-12" d="M30.631,32a2.623,2.623,0,0,0-1.316,4.9v1.681a1.316,1.316,0,0,0,2.631,0V36.9A2.623,2.623,0,0,0,30.631,32Z" transform="translate(-28 -32)"/>
        </g>
      </g>
      <g id="Group_302" data-name="Group 302" class="cls-10" transform="translate(9.209 17.761)">
        <path id="Path_967" data-name="Path 967" class="cls-11" d="M35.708,27H15.973A1.973,1.973,0,0,0,14,28.973v12.5a1.973,1.973,0,0,0,1.973,1.973H35.708a1.973,1.973,0,0,0,1.973-1.973v-12.5A1.973,1.973,0,0,0,35.708,27Zm-8.552,9.5v1.681a1.316,1.316,0,1,1-2.631,0V36.5a2.631,2.631,0,1,1,2.631,0Z" transform="translate(-14 -27)"/>
      </g>
      <g id="Group_303" data-name="Group 303" transform="translate(9.209 16.445)">
        <path id="Path_968" data-name="Path 968" class="cls-13" d="M35.708,25H15.973A1.973,1.973,0,0,0,14,26.973v12.5a1.973,1.973,0,0,0,1.973,1.973H35.708a1.973,1.973,0,0,0,1.973-1.973v-12.5A1.973,1.973,0,0,0,35.708,25Zm-8.552,9.5v1.681a1.316,1.316,0,1,1-2.631,0V34.5a2.631,2.631,0,1,1,2.631,0Z" transform="translate(-14 -25)"/>
      </g>
    </g>
  </g>
</svg>
