<?xml version="1.0" encoding="UTF-8"?>
<svg width="32px" height="23px" viewBox="0 0 32 23" version="1.1" xmlns="http://www.w3.org/2000/svg" xmlns:xlink="http://www.w3.org/1999/xlink">
    <!-- Generator: Sketch 52.5 (67469) - http://www.bohemiancoding.com/sketch -->
    <title>slot-machine</title>
    <desc>Created with Sketch.</desc>
    <g id="Page-1" stroke="none" stroke-width="1" fill="none" fill-rule="evenodd">
        <g id="Desktop-HD" transform="translate(-269.000000, -55.000000)">
            <g id="slot-machine" transform="translate(269.000000, 55.000000)">
                <polygon id="Path" fill="#ECF8FD" points="26.48275 0.002125 32 6.622875 23.414625 6.622875"></polygon>
                <polygon id="Path" fill="#CBEDF9" points="16 0.002125 23.414625 6.622875 26.48275 0.002125"></polygon>
                <polygon id="Path" fill="#AAE2F5" points="32 6.622875 16 22.622875 23.414625 6.622875"></polygon>
                <polygon id="Path" fill="#7DD2F0" points="5.51725 0.002125 0 6.622875 8.585375 6.622875"></polygon>
                <polygon id="Path" fill="#64B9DC" points="16 0.002125 8.585375 6.622875 5.51725 0.002125"></polygon>
                <polygon id="Path" fill="#AAE2F5" points="16 0.002125 8.585375 6.622875 23.414625 6.622875"></polygon>
                <polygon id="Path" fill="#7DD2F0" points="8.585375 6.622875 16 22.622875 23.414625 6.622875"></polygon>
                <polygon id="Path" fill="#64B9DC" points="0 6.622875 16 22.622875 8.585375 6.622875"></polygon>
                <g id="Group" transform="translate(20.937500, 1.062500)" fill="#FFFFFF">
                    <path d="M6.2471875,2.2831875 C5.165875,2.036625 4.3146875,1.1854375 4.06825,0.104125 C4.0496875,0.0226875 3.941875,0.0226875 3.9233125,0.104125 C3.6768125,1.1854375 2.8255625,2.036625 1.744375,2.2831875 C1.6629375,2.30175 1.6629375,2.4095625 1.744375,2.428125 C2.8256875,2.674625 3.676875,3.52575 3.9233125,4.6070625 C3.941875,4.6885 4.0496875,4.6885 4.06825,4.6070625 C4.31475,3.52575 5.166,2.6745625 6.2471875,2.428125 C6.3285625,2.4095 6.3285625,2.30175 6.2471875,2.2831875 Z" id="Path"></path>
                    <path d="M3.720125,6.25775 C2.871375,6.037875 2.2030625,5.3696875 1.9833125,4.5209375 C1.96125,4.4356875 1.850875,4.4356875 1.8288125,4.5209375 C1.6089375,5.3696875 0.94075,6.038 0.092,6.25775 C0.00675,6.2798125 0.00675,6.3901875 0.092,6.41225 C0.94075,6.6320625 1.6090625,7.3003125 1.8288125,8.1490625 C1.850875,8.2343125 1.96125,8.2343125 1.9833125,8.1490625 C2.203125,7.30025 2.871375,6.632 3.720125,6.41225 C3.8054375,6.390125 3.8054375,6.2798125 3.720125,6.25775 Z" id="Path"></path>
                </g>
            </g>
        </g>
    </g>
</svg>