<?xml version="1.0" encoding="UTF-8"?>
<svg width="13px" height="13px" viewBox="0 0 13 13" version="1.1" xmlns="http://www.w3.org/2000/svg" xmlns:xlink="http://www.w3.org/1999/xlink">
    <!-- Generator: Sketch 52.5 (67469) - http://www.bohemiancoding.com/sketch -->
    <title>question</title>
    <desc>Created with Sketch.</desc>
    <g id="Page-1" stroke="none" stroke-width="1" fill="none" fill-rule="evenodd">
        <g id="Desktop-HD" transform="translate(-257.000000, -9.000000)" fill="#FFFFFF">
            <g id="question" transform="translate(257.000000, 9.000000)">
                <path d="M12.9489395,11.7725156 L12.0564844,9.17523242 C12.4857383,8.3075332 12.7127559,7.34037891 12.7142793,6.36720703 C12.7168691,4.691375 12.0684687,3.10677148 10.8884648,1.90538867 C9.7082832,0.703777344 8.13561328,0.027421875 6.46021289,0.000837890625 C5.58243359,-0.0132539063 4.73067969,0.148484375 3.92732031,0.481025391 C3.15247461,0.801785156 2.45760937,1.2664082 1.86204687,1.8619707 C1.26645898,2.4575332 0.801835937,3.15239844 0.481101562,3.92724414 C0.148560547,4.73060352 -0.013,5.58278906 0.000888671875,6.46013672 C0.027421875,8.13553711 0.703802734,9.70820703 1.90541406,10.8884141 C3.10446094,12.0661074 4.68497656,12.7143047 6.35720312,12.7142793 C6.36047852,12.7142793 6.36393164,12.7142793 6.36720703,12.7142793 C7.34037891,12.7127559 8.3075332,12.4857383 9.17525781,12.0564844 L11.772541,12.9489395 C11.8724277,12.9832676 11.9748027,13 12.0760605,13 C12.3166113,13 12.5506113,12.9054961 12.728041,12.7280156 C12.9801445,12.4759121 13.0648223,12.1097793 12.9489395,11.7725156 Z M12.1830313,12.1830312 C12.1574629,12.2085996 12.1027207,12.2473965 12.0229688,12.2200254 L9.27077734,11.2743262 C9.23007617,11.2603613 9.18775,11.2534043 9.14555078,11.2534043 C9.08334375,11.2534043 9.02141602,11.2684609 8.96532813,11.2981426 C8.16991602,11.7189414 7.27108789,11.942125 6.36598828,11.9434961 C3.33053906,11.9483965 0.819609375,9.48289062 0.771519531,6.44792383 C0.747322266,4.92095703 1.3281582,3.48585352 2.40703125,2.40698047 C3.4859043,1.32813281 4.92057617,0.747398437 6.44797461,0.771544922 C9.48291602,0.819660156 11.9482188,3.3293457 11.9434961,6.36601367 C11.9420742,7.27113867 11.718916,8.1699668 11.2981426,8.96532812 C11.2483262,9.05947656 11.2397188,9.17005273 11.2743262,9.27077734 L12.2200254,12.0229687 C12.2474219,12.1026699 12.208625,12.1574883 12.1830313,12.1830312 Z" id="Shape" fill-rule="nonzero"></path>
                <path d="M6.29458984,9.21039844 C6.09301367,9.21039844 5.89989258,9.38765039 5.90921094,9.59577734 C5.91855469,9.80456445 6.07854102,9.98115625 6.29458984,9.98115625 C6.49616602,9.98115625 6.68928711,9.8039043 6.67996875,9.59577734 C6.670625,9.38696484 6.51063867,9.21039844 6.29458984,9.21039844 Z" id="Path"></path>
                <path d="M6.29458984,3.24172266 C5.23734961,3.24172266 4.3772168,4.10185547 4.3772168,5.1590957 C4.3772168,5.37191992 4.54977148,5.54447461 4.7625957,5.54447461 C4.97541992,5.54447461 5.14797461,5.37191992 5.14797461,5.1590957 C5.14797461,4.52686914 5.66236328,4.01248047 6.29458984,4.01248047 C6.92681641,4.01248047 7.44120508,4.52686914 7.44120508,5.1590957 C7.44120508,5.79132227 6.92681641,6.30571094 6.29458984,6.30571094 C6.08176563,6.30571094 5.90921094,6.47826563 5.90921094,6.69108984 L5.90921094,8.26289648 C5.90921094,8.4757207 6.08176563,8.64827539 6.29458984,8.64827539 C6.50741406,8.64827539 6.67996875,8.47574609 6.67996875,8.26287109 L6.67996875,7.03754492 C7.55312695,6.85866797 8.21196289,6.08438086 8.21196289,5.1590957 C8.21196289,4.10185547 7.35183008,3.24172266 6.29458984,3.24172266 Z" id="Path"></path>
            </g>
        </g>
    </g>
</svg>