<svg xmlns="http://www.w3.org/2000/svg" xmlns:xlink="http://www.w3.org/1999/xlink" width="15" height="16" version="1.1"><rect id="backgroundrect" width="100%" height="100%" x="0" y="0" fill="none" stroke="none"/>
    <!-- Generator: Sketch 52.5 (67469) - http://www.bohemiancoding.com/sketch -->
    <title>Group 9</title>
    <desc>Created with Sketch.</desc>
    <defs>
        <filter x="-2.0%" y="-17.5%" width="104.1%" height="155.0%" filterUnits="objectBoundingBox" id="filter-1">
            <feOffset dx="0" dy="3" in="SourceAlpha" result="shadowOffsetOuter1"/>
            <feGaussianBlur stdDeviation="3" in="shadowOffsetOuter1" result="shadowBlurOuter1"/>
            <feColorMatrix values="0 0 0 0 0   0 0 0 0 0   0 0 0 0 0  0 0 0 0.16 0" type="matrix" in="shadowBlurOuter1" result="shadowMatrixOuter1"/>
            <feMerge>
                <feMergeNode in="shadowMatrixOuter1"/>
                <feMergeNode in="SourceGraphic"/>
            </feMerge>
        </filter>
    </defs>
    
<g class="currentLayer" style=""><title>Layer 1</title><g id="Page-1" stroke="none" stroke-width="1" fill="none" fill-rule="evenodd" class="">
        <g id="Desktop-HD" fill="#FFFFFF" fill-rule="nonzero">
            <g id="Group-25" filter="url(#filter-1)">
                <g id="Group-9">
                    <g id="instagram">
                        <path d="M10.266659249419405,-5.960464477539063e-8 L4.666659219419415,-5.960464477539063e-8 C2.0897258794194045,-5.960464477539063e-8 -0.000007450580596923828,2.1825545603953547 -0.000007450580596923828,4.873949520395355 L-0.000007450580596923828,10.722689040395355 C-0.000007450580596923828,13.414083940395358 2.0897258794194045,15.596638640395355 4.666659219419415,15.596638640395355 L10.266659249419405,15.596638640395355 C12.843592549419412,15.596638640395355 14.93332584941939,13.414083940395358 14.93332584941939,10.722689040395355 L14.93332584941939,4.873949520395355 C14.93332584941939,2.1825545603953547 12.843592549419412,-5.960464477539063e-8 10.266659249419405,-5.960464477539063e-8 zM13.533325849419413,10.722689040395355 C13.533325849419413,12.604033540395356 12.067992549419415,14.134453740395355 10.266659249419405,14.134453740395355 L4.666659219419415,14.134453740395355 C2.8653258794194016,14.134453740395355 1.3999925494194088,12.604033540395356 1.3999925494194088,10.722689040395355 L1.3999925494194088,4.873949520395355 C1.3999925494194088,2.992604980395356 2.8653258794194016,1.462184810395355 4.666659219419415,1.462184810395355 L10.266659249419405,1.462184810395355 C12.067992549419415,1.462184810395355 13.533325849419413,2.992604980395356 13.533325849419413,4.873949520395355 L13.533325849419413,10.722689040395355 z" id="Shape"/>
                        <path d="M7.466659219419398,3.8991596003953557 C5.404925879419409,3.8991596003953557 3.7333258794193966,5.645008340395355 3.7333258794193966,7.798319270395355 C3.7333258794193966,9.951630190395356 5.404925879419409,11.697478940395357 7.466659219419398,11.697478940395357 C9.528392549419408,11.697478940395357 11.199992549419392,9.951630190395356 11.199992549419392,7.798319270395355 C11.199992549419392,5.645008340395355 9.528392549419408,3.8991596003953557 7.466659219419398,3.8991596003953557 zM7.466659219419398,10.235294040395356 C6.180525879419406,10.235294040395356 5.133325879419402,9.141579770395353 5.133325879419402,7.798319270395355 C5.133325879419402,6.454083970395356 6.180525879419406,5.361344480395356 7.466659219419398,5.361344480395356 C8.75279254941941,5.361344480395356 9.799992549419414,6.454083970395356 9.799992549419414,7.798319270395355 C9.799992549419414,9.141579770395353 8.75279254941941,10.235294040395356 7.466659219419398,10.235294040395356 z" id="Shape" transform=""/>
                        <ellipse id="Oval" cx="11.479992091655731" cy="3.6067225337028503" rx="1" ry="1"/>
                    </g>
                </g>
            </g>
        </g>
    </g></g></svg>