<?xml version="1.0" encoding="UTF-8"?>
<svg width="24px" height="26px" viewBox="0 0 24 26" version="1.1" xmlns="http://www.w3.org/2000/svg" xmlns:xlink="http://www.w3.org/1999/xlink">
    <!-- Generator: Sketch 52.5 (67469) - http://www.bohemiancoding.com/sketch -->
    <title>Group 6</title>
    <desc>Created with Sketch.</desc>
    <g id="Page-1" stroke="none" stroke-width="1" fill="none" fill-rule="evenodd">
        <g id="Desktop-HD" transform="translate(-340.000000, -53.000000)">
            <g id="Group-6" transform="translate(340.000000, 53.000000)">
                <g id="bell">
                    <path d="M21.6860435,18.1263242 L2.26688293,18.1263242 C3.15671344,18.1263242 3.65982519,17.6607521 3.94544492,16.8891022 C5.32686707,13.1627384 1.64717954,2.30342954 11.9767611,2.30342954 C22.3061441,2.30342954 18.6258607,13.1627384 20.0074815,16.8891022 C20.2934984,17.6607521 20.7968088,18.1263242 21.6860435,18.1263242 Z" id="Path" fill="#F7D360"></path>
                    <path d="M23.5662076,20.0062897 C23.5662076,21.0446901 22.7242452,21.8864539 21.6860435,21.8864539 L2.26688293,21.8864539 C1.74768275,21.8864539 1.27754237,21.6761123 0.93730139,21.3358713 C0.597060407,20.9956303 0.386718763,20.5254899 0.386718763,20.0062897 C0.386718763,18.9680879 1.22848251,18.1263242 2.26688293,18.1263242 L21.6860435,18.1263242 C22.2052436,18.1263242 22.675384,18.3366658 23.015625,18.6769068 C23.355866,19.0171478 23.5662076,19.4872881 23.5662076,20.0062897 Z" id="Path" fill="#E58E13"></path>
                    <path d="M20.0074815,16.8891022 L9.91426114,16.8891022 C8.82620497,16.8891022 7.95603814,15.9883475 7.989804,14.9006886 C8.13201803,10.2989936 7.39810647,2.39082361 11.9010858,2.30382681 C-0.459613322,2.36778336 7.44180351,18.1263242 2.26708159,18.1263242 L21.6860435,18.1263242 C20.7968088,18.1263242 20.2934984,17.6607521 20.0074815,16.8891022 Z" id="Path" fill="#E58E13"></path>
                    <path d="M23.5662076,20.0062897 C23.5662076,21.0446901 22.7242452,21.8864539 21.6860435,21.8864539 L7.69981464,21.8864539 C7.18081302,21.8864539 6.71067264,21.6761123 6.37043166,21.3358713 C6.03019068,20.9956303 5.81984903,20.5254899 5.81984903,20.0062897 C5.81984903,18.9680879 6.66161283,18.1263242 7.69981464,18.1263242 L21.6860435,18.1263242 C22.2052436,18.1263242 22.675384,18.3366658 23.015625,18.6769068 C23.355866,19.0171478 23.5662076,19.4872881 23.5662076,20.0062897 Z" id="Path" fill="#F7D360"></path>
                    <path d="M15.7368909,21.8864539 C15.7368909,23.6154661 14.5701801,25.0713718 12.9819915,25.5111229 C12.6618114,25.5997087 12.3247484,25.6471795 11.9767611,25.6471795 C9.89956302,25.6471795 8.21603547,23.9634534 8.21603547,21.8864539 L15.7368909,21.8864539 Z" id="Path" fill="#E58E13"></path>
                    <path d="M15.5549523,23.0464116 C15.1678363,24.2413268 14.1985567,25.1744571 12.9819915,25.5111229 C12.2170948,25.2995895 11.5501192,24.8524894 11.0638904,24.2528469 C10.6720074,23.7693988 11.0255562,23.0464116 11.6478416,23.0464116 L15.5549523,23.0464116 Z" id="Path" fill="#F7D360"></path>
                    <path d="M13.8877119,2.44723251 C13.8918829,2.39976163 13.8934719,2.35189353 13.8934719,2.30342954 C13.8934719,1.24496822 13.0350238,0.386718763 11.9767611,0.386718763 C10.9177039,0.386718763 10.0600503,1.24496822 10.0600503,2.30342954 C10.0600503,2.35189353 10.0614407,2.39976163 10.0656117,2.44723251" id="Path" fill="#E58E13"></path>
                </g>
            </g>
        </g>
    </g>
</svg>