<svg xmlns="http://www.w3.org/2000/svg" xmlns:xlink="http://www.w3.org/1999/xlink" width="16" height="14" version="1.1" style=""><rect id="backgroundrect" width="100%" height="100%" x="0" y="0" fill="none" stroke="none"/>
    <!-- Generator: Sketch 52.5 (67469) - http://www.bohemiancoding.com/sketch -->
    <title>telegram-logo (1)</title>
    <desc>Created with Sketch.</desc>
    <defs>
        <filter x="-2.0%" y="-17.5%" width="104.1%" height="155.0%" filterUnits="objectBoundingBox" id="filter-1">
            <feColorMatrix values="0 0 0 0 0   0 0 0 0 0   0 0 0 0 0  0 0 0 0.16 0" type="matrix" in="shadowBlurOuter1" result="shadowMatrixOuter1"/>
            <feMerge>
                <feMergeNode in="shadowMatrixOuter1"/>
                <feMergeNode in="SourceGraphic"/>
            </feMerge>
        </filter>
    </defs>
    
<g class="currentLayer" style=""><title>Layer 1</title><g id="Page-1" stroke="none" stroke-width="1" fill="none" fill-rule="evenodd" class="">
        <g id="Desktop-HD" fill="#FFFFFF" fill-rule="nonzero">
            <g id="Group-25" filter="url(#filter-1)">
                <g id="telegram-logo-(1)">
                    <path d="M12.844730495356188,14.271884451854628 C12.720098895356188,14.271884451854628 12.596309395356187,14.235000251854629 12.490119995356181,14.163000251854626 L8.478246275356184,11.441652851854629 L6.326498905356189,12.989947551854627 C6.15774101535618,13.111294951854628 5.940225225356187,13.141863351854628 5.744267325356191,13.07180025185463 C5.54856206535618,13.001568651854626 5.3999304853561805,12.839463351854628 5.346877855356183,12.638452851854629 L4.266456805356185,8.543968641854628 L0.4059936423561794,7.067842331854628 C0.16296206335618993,6.974873911854628 0.0017831164061874465,6.742368641854627 0.000014695356185256973,6.48215812185463 C-0.0017537256938169328,6.221947591854629 0.1562252213561806,5.987252861854628 0.39807785335618473,5.891000221854627 L15.076983095356184,0.05015811985462817 C15.14359359535618,0.02186338385462783 15.214077895356187,0.005526541354628378 15.285151495356189,0.0011475939546281566 C15.31058309535618,-0.0003681955453718189 15.336098895356187,-0.0003681955453718189 15.361446295356188,0.0010633834546283083 C15.508646295356186,0.009821278154628745 15.653235795356181,0.069779172854628 15.76607789535619,0.18043180485462787 C15.777783095356185,0.19188443585462878 15.788898895356184,0.2035896988546284 15.799425195356179,0.21580022585462857 C15.892898895356183,0.32257917285462867 15.944267295356184,0.45276864685462836 15.95395149535618,0.5854002258546284 C15.956309395356186,0.6187475938546289 15.95614099535618,0.6525160148546281 15.953193595356183,0.6862844358546286 C15.951172595356184,0.7103686468546285 15.94771999535618,0.7343686468546285 15.942835795356189,0.7582002258546281 L13.46510939535618,13.758537051854628 C13.425277895356189,13.967379151854631 13.28313049535619,14.142200251854629 13.086751495356182,14.223631851854627 C13.00885679535618,14.25596865185463 12.926583095356193,14.271884451854628 12.844730495356188,14.271884451854628 zM8.83049890535618,10.154242351854629 L12.404140995356187,12.578242351854628 L14.33205679535618,2.4625370718546282 L7.368941015356185,9.162831801854628 L8.813656805356189,10.142873951854629 C8.819467325356186,10.146494951854628 8.825025225356185,10.150368651854627 8.83049890535618,10.154242351854629 zM5.85559364535618,9.615210751854628 L6.334077855356185,11.428263351854628 L7.364983115356182,10.686452851854629 L6.015088375356186,9.770747591854628 C5.952351535356186,9.728305491854629 5.898625225356186,9.675421281854629 5.85559364535618,9.615210751854628 zM2.369362065356185,6.466073911854627 L5.020141015356188,7.4795475918546295 C5.21003574535618,7.552137071854627 5.35336206535618,7.711800221854627 5.40523574535618,7.908347591854628 L5.741404165356187,9.182368641854628 C5.756814695356184,9.035421281854628 5.823425225356189,8.897147591854628 5.931635745356189,8.792979171854629 L12.56649889535619,2.4086423318546286 L2.369362065356185,6.466073911854627 z" id="Shape"/>
                </g>
            </g>
        </g>
    </g></g></svg>