<?xml version="1.0" encoding="UTF-8"?>
<svg width="28px" height="28px" viewBox="0 0 28 28" version="1.1" xmlns="http://www.w3.org/2000/svg" xmlns:xlink="http://www.w3.org/1999/xlink">
    <!-- Generator: Sketch 52.5 (67469) - http://www.bohemiancoding.com/sketch -->
    <title>Group 52</title>
    <desc>Created with Sketch.</desc>
    <g id="Page-1" stroke="none" stroke-width="1" fill="none" fill-rule="evenodd">
        <g id="Desktop-HD" transform="translate(-186.000000, -52.000000)">
            <g id="Group-52" transform="translate(186.000000, 52.000000)">
                <g id="Group-10">
                    <g id="coin">
                        <path d="M15.5,28 C8.7345,28 3.25,21.732 3.25,14 C3.25,6.268 8.7345,0 15.5,0 C22.2655,0 27.75,6.268 27.75,14 C27.75,21.732 22.2655,28 15.5,28" id="XMLID_91_" fill="#FCC62D"></path>
                        <path d="M3.25,14 C3.25,6.849 7.9425,0.954 14,0.1085 C13.508,0.0395 13.008,0 12.5,0 C5.7345,0 0.25,6.268 0.25,14 C0.25,21.732 5.7345,28 12.5,28 C13.008,28 13.508,27.9605 14,27.892 C7.9425,27.046 3.25,21.151 3.25,14" id="XMLID_136_" fill="#E4AF18"></path>
                        <path d="M3.2495,14.5005 L0.2505,14.5005 C0.2605,14.837 0.2795,15.1705 0.31,15.5005 L3.3115,15.5005 C3.2805,15.171 3.2595,14.8375 3.2495,14.5005" id="XMLID_135_" fill="#CE9912"></path>
                        <path d="M3.3635,12.0005 L0.3655,12.0005 C0.324,12.33 0.2945,12.664 0.273,13.0005 L3.2725,13.0005 C3.294,12.6645 3.323,12.3305 3.3635,12.0005" id="XMLID_134_" fill="#CE9912"></path>
                        <path d="M3.5245,17.0005 L0.524,17.0005 C0.589,17.3385 0.664,17.672 0.7495,18.0005 L3.749,18.0005 C3.6635,17.6725 3.589,17.339 3.5245,17.0005" id="XMLID_133_" fill="#CE9912"></path>
                        <path d="M4.224,19.5005 L1.222,19.5005 C1.3495,19.8415 1.49,20.174 1.6405,20.5005 L4.6415,20.5005 C4.491,20.175 4.3515,19.8415 4.224,19.5005" id="XMLID_132_" fill="#CE9912"></path>
                        <path d="M3.8865,9.5005 L0.889,9.5005 C0.792,9.829 0.701,10.1615 0.625,10.5005 L3.6285,10.5005 C3.704,10.163 3.789,9.8285 3.8865,9.5005" id="XMLID_131_" fill="#CE9912"></path>
                        <path d="M4.882,7.001 L1.8815,7.001 C1.717,7.3265 1.5615,7.6595 1.4195,8.001 L4.4215,8.001 C4.5635,7.6595 4.717,7.326 4.882,7.001" id="XMLID_130_" fill="#CE9912"></path>
                        <path d="M6.9225,4.001 L3.919,4.001 C3.6345,4.319 3.364,4.6525 3.108,5.001 L6.1105,5.001 C6.3665,4.6525 6.6375,4.319 6.9225,4.001" id="XMLID_129_" fill="#CE9912"></path>
                        <path d="M9.9795,1.5005 L6.9725,1.5005 C6.462,1.7955 5.9715,2.1295 5.5045,2.5005 L8.509,2.5005 C8.9765,2.13 9.4675,1.796 9.9795,1.5005" id="XMLID_128_" fill="#CE9912"></path>
                        <path d="M5.7595,22.5005 L2.7585,22.5005 C2.9905,22.847 3.2355,23.1805 3.495,23.5005 L6.4985,23.5005 C6.2385,23.1805 5.9925,22.847 5.7595,22.5005" id="XMLID_127_" fill="#CE9912"></path>
                        <path d="M4.917,25.0005 C5.3185,25.362 5.7395,25.698 6.179,26.0005 L9.1865,26.0005 C8.744,25.697 8.3195,25.3635 7.9155,25.0005 L4.917,25.0005 Z" id="XMLID_126_" fill="#CE9912"></path>
                        <path d="M15.5425,25.262 L15.5,25.262 C15.15,25.262 14.7975,25.241 14.4525,25.2 C14.1785,25.167 13.982,24.9185 14.0155,24.644 C14.0475,24.37 14.289,24.179 14.571,24.207 C14.876,24.2435 15.189,24.262 15.4995,24.262 C15.776,24.262 16.0205,24.486 16.0205,24.762 C16.021,25.038 15.819,25.262 15.5425,25.262 M18.4505,24.7235 C18.2485,24.7235 18.058,24.6 17.982,24.3995 C17.8845,24.1415 18.0155,23.853 18.2735,23.7555 C18.5625,23.6465 18.85,23.519 19.1265,23.377 C19.373,23.25 19.6735,23.3475 19.8005,23.593 C19.9265,23.8385 19.83,24.14 19.5835,24.266 C19.273,24.426 18.951,24.5685 18.626,24.691 C18.5685,24.713 18.509,24.7235 18.4505,24.7235 M11.683,24.3415 C11.6065,24.3415 11.529,24.324 11.457,24.287 C11.148,24.1305 10.8435,23.954 10.5525,23.763 C10.321,23.612 10.2565,23.302 10.408,23.071 C10.56,22.8405 10.869,22.7755 11.1005,22.927 C11.361,23.0975 11.633,23.2555 11.9095,23.3955 C12.156,23.5205 12.2535,23.8215 12.1285,24.0675 C12.041,24.2415 11.8655,24.3415 11.683,24.3415 M21.7385,22.5625 C21.611,22.5625 21.484,22.5145 21.387,22.4185 C21.1905,22.224 21.1885,21.9075 21.3825,21.711 C21.601,21.491 21.8115,21.2545 22.012,21.0095 C22.186,20.7955 22.5005,20.763 22.7145,20.937 C22.9295,21.1115 22.961,21.4265 22.7875,21.6405 C22.5675,21.9105 22.334,22.171 22.094,22.414 C21.996,22.513 21.867,22.5625 21.7385,22.5625 M8.6285,21.859 C8.4835,21.859 8.3405,21.7965 8.242,21.676 C8.026,21.4135 7.818,21.1335 7.623,20.844 C7.468,20.6155 7.528,20.3045 7.7565,20.1495 C7.986,19.9955 8.296,20.0555 8.4515,20.2845 C8.6295,20.548 8.8195,20.8035 9.016,21.0425 C9.1905,21.256 9.16,21.571 8.9455,21.746 C8.8525,21.822 8.74,21.859 8.6285,21.859 M23.935,19.2895 C23.8685,19.2895 23.801,19.276 23.7355,19.248 C23.4825,19.1375 23.367,18.843 23.477,18.5895 C23.6025,18.3015 23.7165,18.0035 23.818,17.705 C23.9065,17.4435 24.19,17.303 24.452,17.3905 C24.713,17.479 24.854,17.7625 24.766,18.024 C24.6555,18.35 24.5305,18.6745 24.3945,18.989 C24.3115,19.177 24.128,19.2895 23.935,19.2895 M6.7225,18.4065 C6.5145,18.4065 6.3195,18.2755 6.249,18.0675 C6.1385,17.7435 6.04,17.4095 5.9565,17.0765 C5.8905,16.8085 6.0535,16.5375 6.321,16.471 C6.5885,16.403 6.86,16.567 6.9275,16.835 C7.003,17.1405 7.0935,17.447 7.195,17.745 C7.285,18.0055 7.1445,18.2905 6.8835,18.3795 C6.8305,18.3975 6.776,18.4065 6.7225,18.4065 M24.8805,15.4575 C24.8685,15.4575 24.8545,15.457 24.8415,15.456 C24.566,15.435 24.36,15.1945 24.3815,14.919 C24.4055,14.6175 24.4165,14.3085 24.4165,14 C24.4165,13.724 24.6405,13.4835 24.9165,13.4835 C25.193,13.4835 25.4165,13.691 25.4165,13.9675 L25.4165,14 C25.4165,14.3345 25.404,14.6695 25.3785,14.996 C25.358,15.2585 25.1395,15.4575 24.8805,15.4575 M6.083,14.5055 C5.807,14.5055 5.583,14.2875 5.583,14.0115 L5.583,14 C5.583,13.6625 5.597,13.32 5.6235,12.982 C5.6445,12.7065 5.8905,12.5045 6.161,12.523 C6.436,12.5445 6.642,12.785 6.6205,13.0605 C6.596,13.3725 6.583,13.6885 6.583,14 C6.583,14.276 6.3595,14.5055 6.083,14.5055 M24.552,11.5235 C24.3285,11.5235 24.124,11.3725 24.067,11.1455 C23.991,10.84 23.8995,10.534 23.797,10.236 C23.7075,9.9745 23.8475,9.69 24.1075,9.6005 C24.372,9.51 24.6535,9.65 24.7435,9.911 C24.8545,10.2355 24.9535,10.569 25.037,10.9015 C25.104,11.1695 24.9415,11.441 24.673,11.508 C24.6325,11.519 24.592,11.5235 24.552,11.5235 M6.7155,10.6155 C6.6625,10.6155 6.608,10.6065 6.5555,10.5885 C6.2935,10.5 6.1535,10.216 6.2425,9.9545 C6.353,9.6275 6.479,9.303 6.6165,8.99 C6.728,8.737 7.0205,8.621 7.2745,8.733 C7.5275,8.844 7.643,9.139 7.5325,9.3915 C7.4065,9.6785 7.291,9.976 7.189,10.2755 C7.1185,10.484 6.924,10.6155 6.7155,10.6155 M22.9515,7.9185 C22.791,7.9185 22.633,7.8415 22.537,7.699 C22.3605,7.439 22.1705,7.1845 21.9715,6.9425 C21.7955,6.7295 21.827,6.414 22.04,6.2385 C22.2535,6.0635 22.568,6.094 22.744,6.307 C22.9625,6.573 23.171,6.853 23.365,7.138 C23.5195,7.367 23.459,7.6775 23.2305,7.8325 C23.145,7.8905 23.048,7.9185 22.9515,7.9185 M8.6145,7.1585 C8.503,7.1585 8.3915,7.122 8.298,7.046 C8.084,6.871 8.053,6.5565 8.2275,6.3425 C8.447,6.0735 8.681,5.8135 8.922,5.5705 C9.1175,5.374 9.4335,5.3735 9.629,5.5675 C9.826,5.762 9.827,6.0785 9.632,6.2745 C9.4135,6.495 9.202,6.731 9.0015,6.975 C8.903,7.096 8.759,7.1585 8.6145,7.1585 M20.1555,5.1435 C20.0615,5.1435 19.967,5.117 19.8825,5.0625 C19.621,4.8915 19.3485,4.7345 19.0725,4.596 C18.8265,4.472 18.7275,4.1705 18.852,3.924 C18.976,3.6775 19.2755,3.578 19.523,3.703 C19.8315,3.858 20.1365,4.034 20.4295,4.225 C20.661,4.3755 20.7265,4.6855 20.5755,4.917 C20.4785,5.0635 20.3185,5.1435 20.1555,5.1435 M11.664,4.669 C11.4815,4.669 11.3065,4.5695 11.2175,4.3965 C11.0925,4.15 11.1895,3.849 11.4355,3.7235 C11.748,3.5645 12.0705,3.4215 12.394,3.301 C12.655,3.2035 12.941,3.3355 13.038,3.594 C13.1345,3.8525 13.003,4.1405 12.745,4.2375 C12.4565,4.3455 12.1685,4.472 11.891,4.614 C11.818,4.651 11.7405,4.669 11.664,4.669 M16.467,3.794 C16.4485,3.794 16.429,3.793 16.4095,3.7905 C16.108,3.7555 15.8025,3.738 15.5,3.738 C15.224,3.738 14.9895,3.514 14.9895,3.238 C14.9895,2.962 15.2025,2.738 15.4785,2.738 L15.5,2.738 C15.8405,2.738 16.1855,2.758 16.524,2.7975 C16.7985,2.829 16.995,3.0775 16.963,3.3515 C16.934,3.6065 16.718,3.794 16.467,3.794" id="XMLID_109_" fill="#FFD949" fill-rule="nonzero"></path>
                    </g>
                </g>
            </g>
        </g>
    </g>
</svg>