<svg xmlns="http://www.w3.org/2000/svg" width="13" height="13" viewBox="0 0 13 13">
    <g fill="#FFF" fill-rule="evenodd">
        <path fill-rule="nonzero" d="M12.949 11.773l-.893-2.598c.43-.867.657-1.835.658-2.808a6.319 6.319 0 0 0-1.826-4.462A6.314 6.314 0 0 0 6.46.001a6.332 6.332 0 0 0-4.598 1.861A6.332 6.332 0 0 0 .001 6.46a6.313 6.313 0 0 0 1.904 4.428 6.319 6.319 0 0 0 4.452 1.826h.01a6.377 6.377 0 0 0 2.808-.658l2.598.893a.92.92 0 0 0 .955-.22.92.92 0 0 0 .22-.956zm-.766.41a.149.149 0 0 1-.16.037l-2.752-.946a.386.386 0 0 0-.306.024 5.597 5.597 0 0 1-2.599.645C3.331 11.948.82 9.483.772 6.448a5.544 5.544 0 0 1 1.635-4.041A5.543 5.543 0 0 1 6.448.772c3.035.048 5.5 2.557 5.495 5.594a5.597 5.597 0 0 1-.645 2.6.385.385 0 0 0-.024.305l.946 2.752a.149.149 0 0 1-.037.16z"/>
        <path d="M6.295 9.21c-.202 0-.395.178-.386.386.01.209.17.385.386.385.201 0 .394-.177.385-.385a.392.392 0 0 0-.385-.386zM6.295 3.242a1.92 1.92 0 0 0-1.918 1.917.385.385 0 0 0 .771 0 1.148 1.148 0 0 1 2.293 0c0 .632-.514 1.147-1.146 1.147a.385.385 0 0 0-.386.385v1.572a.385.385 0 0 0 .771 0V7.038a1.92 1.92 0 0 0 1.532-1.879 1.92 1.92 0 0 0-1.917-1.917z"/>
    </g>
</svg>
