<svg xmlns="http://www.w3.org/2000/svg" xmlns:xlink="http://www.w3.org/1999/xlink" width="15" height="12" version="1.1" style=""><rect id="backgroundrect" width="100%" height="100%" x="0" y="0" fill="none" stroke="none"/>
    <!-- Generator: Sketch 52.5 (67469) - http://www.bohemiancoding.com/sketch -->
    <title>Group 7</title>
    <desc>Created with Sketch.</desc>
    <defs>
        <filter x="-2.0%" y="-17.5%" width="104.1%" height="155.0%" filterUnits="objectBoundingBox" id="filter-1">
            <feOffset dx="0" dy="3" in="SourceAlpha" result="shadowOffsetOuter1"/>
            <feGaussianBlur stdDeviation="3" in="shadowOffsetOuter1" result="shadowBlurOuter1"/>
            <feColorMatrix values="0 0 0 0 0   0 0 0 0 0   0 0 0 0 0  0 0 0 0.16 0" type="matrix" in="shadowBlurOuter1" result="shadowMatrixOuter1"/>
            <feMerge>
                <feMergeNode in="shadowMatrixOuter1"/>
                <feMergeNode in="SourceGraphic"/>
            </feMerge>
        </filter>
    </defs>
    
<g class="currentLayer" style=""><title>Layer 1</title><g id="Page-1" stroke="none" stroke-width="1" fill="none" fill-rule="evenodd" class="selected" filter="">
        <g id="Desktop-HD" fill="#FFFFFF" fill-rule="nonzero" filter="">
            <g id="Group-25" filter="">
                <g id="Group-7" filter="">
                    <g id="twitter-logo-silhouette" filter="">
                        <path d="M14.933301449419389,1.4250473800000005 C14.383671849419414,1.6668719900000006 13.793927149419403,1.83087467 13.1742914494194,1.9040931800000003 C13.806981649419413,1.527897339999999 14.29129014941941,0.9311979699999995 14.520829149419399,0.22236912500000017 C13.927351149419394,0.570750652000001 13.272260949419405,0.823720367 12.574249649419414,0.9608536470000004 C12.015298849419395,0.36878192 11.220245249419406,0 10.338397749419414,0 C8.64658775941939,0 7.274843969419408,1.3620532900000004 7.274843969419408,3.0409910700000005 C7.274843969419408,3.27910872 7.301904529419403,3.5116780399999996 7.3541711994193975,3.7340713900000004 C4.808525879419392,3.6071140800000006 2.5512256694194093,2.3961012200000003 1.0404457094194015,0.5559228140000005 C0.7763550764194065,1.0043922500000004 0.626118911419411,1.5269524299999997 0.626118911419411,2.0847650699999996 C0.626118911419411,3.14013407 1.1673546394194148,4.07133204 1.9885415694193966,4.61613397 C1.4864936394193933,4.599464770000001 1.0143123794194082,4.46233149 0.6009372114193923,4.23438981 L0.6009372114193923,4.27238009 C0.6009372114193923,5.74561795 1.6572753394194137,6.9751656 3.0579341594194034,7.255004719999999 C2.8013101994193903,7.323571359999999 2.5307045294194097,7.361561639999998 2.2507533294194104,7.361561639999998 C2.0529354694193955,7.361561639999998 1.8616326394194118,7.34210616 1.6740631394194168,7.305036560000001 C2.064111069419397,8.51420805 3.195115859419417,9.393508580000002 4.535138519419405,9.417615939999997 C3.487194289419392,10.233001700000003 2.1658382994193914,10.717595799999998 0.7306522444194172,10.717595799999998 C0.483373813419405,10.717595799999998 0.2398043144194162,10.702767999999999 -0.000007450580596923828,10.6758986 C1.3558757694194128,11.540395500000002 2.9655768594194,12.0444451 4.695647449419397,12.0444451 C10.330979949419401,12.0444451 13.411345949419399,7.4097521099999994 13.411345949419399,3.390317510000001 L13.401073149419403,2.9965317799999998 C14.002945049419395,2.5702798700000002 14.523635249419414,2.0347332199999997 14.933301449419389,1.4250473800000005 z" id="Shape" filter=""/>
                    </g>
                </g>
            </g>
        </g>
    </g></g></svg>